<svg xmlns="http://www.w3.org/2000/svg" xmlns:xlink="http://www.w3.org/1999/xlink" width="340" height="195" viewBox="0 0 340 195" font-family="-apple-system,BlinkMacSystemFont,Segoe UI,Helvetica,Arial,sans-serif"><rect x="0.5" y="0.5" width="339" height="194" rx="8" fill="#FFFFFF" stroke="#E5E5E5" stroke-width="1"/><text x="170.0" y="26" fill="#3B6EA8" font-size="13" font-weight="700" text-anchor="middle">Cumulative contributions</text><line x1="16" y1="38" x2="324" y2="38" stroke="#CCCCCC" stroke-width="0.6"/><line x1="38" y1="157.0" x2="322" y2="157.0" stroke="#E5E5E5" stroke-width="0.5"/><text x="34" y="160.0" fill="#7A7A7A" font-size="8" text-anchor="end">0</text><line x1="38" y1="131.25" x2="322" y2="131.25" stroke="#E5E5E5" stroke-width="0.5"/><text x="34" y="134.25" fill="#7A7A7A" font-size="8" text-anchor="end">14</text><line x1="38" y1="105.5" x2="322" y2="105.5" stroke="#E5E5E5" stroke-width="0.5"/><text x="34" y="108.5" fill="#7A7A7A" font-size="8" text-anchor="end">28</text><line x1="38" y1="79.75" x2="322" y2="79.75" stroke="#E5E5E5" stroke-width="0.5"/><text x="34" y="82.75" fill="#7A7A7A" font-size="8" text-anchor="end">42</text><line x1="38" y1="54.0" x2="322" y2="54.0" stroke="#E5E5E5" stroke-width="0.5"/><text x="34" y="57.0" fill="#7A7A7A" font-size="8" text-anchor="end">56</text><path d="M 38 157.0 L 38.0 157.0 L 38.8 157.0 L 39.5 157.0 L 40.3 157.0 L 41.1 157.0 L 41.8 157.0 L 42.6 157.0 L 43.4 157.0 L 44.1 157.0 L 44.9 157.0 L 45.7 157.0 L 46.4 157.0 L 47.2 157.0 L 48.0 157.0 L 48.7 157.0 L 49.5 157.0 L 50.3 157.0 L 51.0 157.0 L 51.8 157.0 L 52.6 157.0 L 53.4 157.0 L 54.1 157.0 L 54.9 157.0 L 55.7 157.0 L 56.4 157.0 L 57.2 157.0 L 58.0 157.0 L 58.7 157.0 L 59.5 157.0 L 60.3 157.0 L 61.0 157.0 L 61.8 157.0 L 62.6 157.0 L 63.3 157.0 L 64.1 157.0 L 64.9 157.0 L 65.6 157.0 L 66.4 157.0 L 67.2 157.0 L 67.9 157.0 L 68.7 157.0 L 69.5 157.0 L 70.2 157.0 L 71.0 157.0 L 71.8 157.0 L 72.5 157.0 L 73.3 157.0 L 74.1 157.0 L 74.8 157.0 L 75.6 157.0 L 76.4 157.0 L 77.1 157.0 L 77.9 157.0 L 78.7 157.0 L 79.4 157.0 L 80.2 157.0 L 81.0 157.0 L 81.8 157.0 L 82.5 157.0 L 83.3 157.0 L 84.1 157.0 L 84.8 157.0 L 85.6 157.0 L 86.4 157.0 L 87.1 157.0 L 87.9 157.0 L 88.7 157.0 L 89.4 157.0 L 90.2 157.0 L 91.0 157.0 L 91.7 157.0 L 92.5 157.0 L 93.3 157.0 L 94.0 157.0 L 94.8 157.0 L 95.6 157.0 L 96.3 157.0 L 97.1 157.0 L 97.9 157.0 L 98.6 157.0 L 99.4 157.0 L 100.2 157.0 L 100.9 157.0 L 101.7 157.0 L 102.5 157.0 L 103.2 157.0 L 104.0 157.0 L 104.8 157.0 L 105.5 157.0 L 106.3 157.0 L 107.1 157.0 L 107.8 157.0 L 108.6 157.0 L 109.4 157.0 L 110.2 157.0 L 110.9 157.0 L 111.7 157.0 L 112.5 157.0 L 113.2 157.0 L 114.0 157.0 L 114.8 157.0 L 115.5 157.0 L 116.3 157.0 L 117.1 157.0 L 117.8 157.0 L 118.6 157.0 L 119.4 157.0 L 120.1 157.0 L 120.9 157.0 L 121.7 157.0 L 122.4 157.0 L 123.2 157.0 L 124.0 157.0 L 124.7 157.0 L 125.5 157.0 L 126.3 157.0 L 127.0 157.0 L 127.8 157.0 L 128.6 157.0 L 129.3 157.0 L 130.1 157.0 L 130.9 157.0 L 131.6 157.0 L 132.4 157.0 L 133.2 157.0 L 133.9 157.0 L 134.7 157.0 L 135.5 157.0 L 136.2 157.0 L 137.0 157.0 L 137.8 157.0 L 138.6 157.0 L 139.3 157.0 L 140.1 157.0 L 140.9 157.0 L 141.6 157.0 L 142.4 157.0 L 143.2 157.0 L 143.9 157.0 L 144.7 157.0 L 145.5 157.0 L 146.2 157.0 L 147.0 157.0 L 147.8 157.0 L 148.5 157.0 L 149.3 157.0 L 150.1 157.0 L 150.8 157.0 L 151.6 157.0 L 152.4 157.0 L 153.1 157.0 L 153.9 157.0 L 154.7 157.0 L 155.4 157.0 L 156.2 157.0 L 157.0 157.0 L 157.7 157.0 L 158.5 157.0 L 159.3 157.0 L 160.0 157.0 L 160.8 157.0 L 161.6 157.0 L 162.3 157.0 L 163.1 157.0 L 163.9 157.0 L 164.6 157.0 L 165.4 157.0 L 166.2 157.0 L 167.0 157.0 L 167.7 157.0 L 168.5 157.0 L 169.3 157.0 L 170.0 157.0 L 170.8 157.0 L 171.6 157.0 L 172.3 157.0 L 173.1 157.0 L 173.9 157.0 L 174.6 157.0 L 175.4 157.0 L 176.2 157.0 L 176.9 157.0 L 177.7 157.0 L 178.5 157.0 L 179.2 157.0 L 180.0 157.0 L 180.8 157.0 L 181.5 157.0 L 182.3 157.0 L 183.1 157.0 L 183.8 157.0 L 184.6 157.0 L 185.4 157.0 L 186.1 157.0 L 186.9 157.0 L 187.7 157.0 L 188.4 157.0 L 189.2 157.0 L 190.0 157.0 L 190.7 157.0 L 191.5 157.0 L 192.3 157.0 L 193.0 157.0 L 193.8 157.0 L 194.6 157.0 L 195.4 157.0 L 196.1 157.0 L 196.9 157.0 L 197.7 157.0 L 198.4 157.0 L 199.2 157.0 L 200.0 157.0 L 200.7 157.0 L 201.5 157.0 L 202.3 157.0 L 203.0 157.0 L 203.8 157.0 L 204.6 157.0 L 205.3 157.0 L 206.1 157.0 L 206.9 157.0 L 207.6 157.0 L 208.4 157.0 L 209.2 157.0 L 209.9 157.0 L 210.7 157.0 L 211.5 157.0 L 212.2 157.0 L 213.0 157.0 L 213.8 157.0 L 214.5 157.0 L 215.3 157.0 L 216.1 157.0 L 216.8 157.0 L 217.6 157.0 L 218.4 157.0 L 219.1 157.0 L 219.9 157.0 L 220.7 157.0 L 221.4 157.0 L 222.2 157.0 L 223.0 157.0 L 223.8 157.0 L 224.5 157.0 L 225.3 157.0 L 226.1 157.0 L 226.8 157.0 L 227.6 157.0 L 228.4 157.0 L 229.1 157.0 L 229.9 157.0 L 230.7 157.0 L 231.4 157.0 L 232.2 157.0 L 233.0 157.0 L 233.7 157.0 L 234.5 157.0 L 235.3 157.0 L 236.0 157.0 L 236.8 157.0 L 237.6 157.0 L 238.3 157.0 L 239.1 157.0 L 239.9 157.0 L 240.6 157.0 L 241.4 157.0 L 242.2 157.0 L 242.9 157.0 L 243.7 157.0 L 244.5 157.0 L 245.2 157.0 L 246.0 157.0 L 246.8 157.0 L 247.5 157.0 L 248.3 157.0 L 249.1 157.0 L 249.8 157.0 L 250.6 157.0 L 251.4 157.0 L 252.2 157.0 L 252.9 157.0 L 253.7 157.0 L 254.5 157.0 L 255.2 157.0 L 256.0 157.0 L 256.8 157.0 L 257.5 157.0 L 258.3 157.0 L 259.1 157.0 L 259.8 157.0 L 260.6 157.0 L 261.4 157.0 L 262.1 157.0 L 262.9 157.0 L 263.7 157.0 L 264.4 157.0 L 265.2 157.0 L 266.0 157.0 L 266.7 157.0 L 267.5 157.0 L 268.3 157.0 L 269.0 157.0 L 269.8 157.0 L 270.6 157.0 L 271.3 157.0 L 272.1 157.0 L 272.9 157.0 L 273.6 157.0 L 274.4 157.0 L 275.2 157.0 L 275.9 157.0 L 276.7 157.0 L 277.5 157.0 L 278.2 157.0 L 279.0 157.0 L 279.8 157.0 L 280.6 157.0 L 281.3 157.0 L 282.1 157.0 L 282.9 157.0 L 283.6 157.0 L 284.4 157.0 L 285.2 157.0 L 285.9 157.0 L 286.7 157.0 L 287.5 157.0 L 288.2 157.0 L 289.0 157.0 L 289.8 157.0 L 290.5 157.0 L 291.3 157.0 L 292.1 157.0 L 292.8 157.0 L 293.6 157.0 L 294.4 157.0 L 295.1 157.0 L 295.9 157.0 L 296.7 157.0 L 297.4 157.0 L 298.2 157.0 L 299.0 157.0 L 299.7 157.0 L 300.5 157.0 L 301.3 157.0 L 302.0 157.0 L 302.8 157.0 L 303.6 157.0 L 304.3 157.0 L 305.1 157.0 L 305.9 157.0 L 306.6 107.3 L 307.4 59.5 L 308.2 54.0 L 309.0 54.0 L 309.7 54.0 L 310.5 54.0 L 311.3 54.0 L 312.0 54.0 L 312.8 54.0 L 313.6 54.0 L 314.3 54.0 L 315.1 54.0 L 315.9 54.0 L 316.6 54.0 L 317.4 54.0 L 318.2 54.0 L 318.9 54.0 L 319.7 54.0 L 320.5 54.0 L 321.2 54.0 L 322.0 54.0 L 322.0 157.0 Z" fill="#3B6EA8" fill-opacity="0.18" stroke="none"/><path d="M 38.0 157.0 L 38.8 157.0 L 39.5 157.0 L 40.3 157.0 L 41.1 157.0 L 41.8 157.0 L 42.6 157.0 L 43.4 157.0 L 44.1 157.0 L 44.9 157.0 L 45.7 157.0 L 46.4 157.0 L 47.2 157.0 L 48.0 157.0 L 48.7 157.0 L 49.5 157.0 L 50.3 157.0 L 51.0 157.0 L 51.8 157.0 L 52.6 157.0 L 53.4 157.0 L 54.1 157.0 L 54.9 157.0 L 55.7 157.0 L 56.4 157.0 L 57.2 157.0 L 58.0 157.0 L 58.7 157.0 L 59.5 157.0 L 60.3 157.0 L 61.0 157.0 L 61.8 157.0 L 62.6 157.0 L 63.3 157.0 L 64.1 157.0 L 64.9 157.0 L 65.6 157.0 L 66.4 157.0 L 67.2 157.0 L 67.9 157.0 L 68.7 157.0 L 69.5 157.0 L 70.2 157.0 L 71.0 157.0 L 71.8 157.0 L 72.5 157.0 L 73.3 157.0 L 74.1 157.0 L 74.8 157.0 L 75.6 157.0 L 76.4 157.0 L 77.1 157.0 L 77.9 157.0 L 78.7 157.0 L 79.4 157.0 L 80.2 157.0 L 81.0 157.0 L 81.8 157.0 L 82.5 157.0 L 83.3 157.0 L 84.1 157.0 L 84.8 157.0 L 85.6 157.0 L 86.4 157.0 L 87.1 157.0 L 87.9 157.0 L 88.7 157.0 L 89.4 157.0 L 90.2 157.0 L 91.0 157.0 L 91.7 157.0 L 92.5 157.0 L 93.3 157.0 L 94.0 157.0 L 94.8 157.0 L 95.6 157.0 L 96.3 157.0 L 97.1 157.0 L 97.9 157.0 L 98.6 157.0 L 99.4 157.0 L 100.2 157.0 L 100.9 157.0 L 101.7 157.0 L 102.5 157.0 L 103.2 157.0 L 104.0 157.0 L 104.8 157.0 L 105.5 157.0 L 106.3 157.0 L 107.1 157.0 L 107.8 157.0 L 108.6 157.0 L 109.4 157.0 L 110.2 157.0 L 110.9 157.0 L 111.7 157.0 L 112.5 157.0 L 113.2 157.0 L 114.0 157.0 L 114.8 157.0 L 115.5 157.0 L 116.3 157.0 L 117.1 157.0 L 117.8 157.0 L 118.6 157.0 L 119.4 157.0 L 120.1 157.0 L 120.9 157.0 L 121.7 157.0 L 122.4 157.0 L 123.2 157.0 L 124.0 157.0 L 124.7 157.0 L 125.5 157.0 L 126.3 157.0 L 127.0 157.0 L 127.8 157.0 L 128.6 157.0 L 129.3 157.0 L 130.1 157.0 L 130.9 157.0 L 131.6 157.0 L 132.4 157.0 L 133.2 157.0 L 133.9 157.0 L 134.7 157.0 L 135.5 157.0 L 136.2 157.0 L 137.0 157.0 L 137.8 157.0 L 138.6 157.0 L 139.3 157.0 L 140.1 157.0 L 140.9 157.0 L 141.6 157.0 L 142.4 157.0 L 143.2 157.0 L 143.9 157.0 L 144.7 157.0 L 145.5 157.0 L 146.2 157.0 L 147.0 157.0 L 147.8 157.0 L 148.5 157.0 L 149.3 157.0 L 150.1 157.0 L 150.8 157.0 L 151.6 157.0 L 152.4 157.0 L 153.1 157.0 L 153.9 157.0 L 154.7 157.0 L 155.4 157.0 L 156.2 157.0 L 157.0 157.0 L 157.7 157.0 L 158.5 157.0 L 159.3 157.0 L 160.0 157.0 L 160.8 157.0 L 161.6 157.0 L 162.3 157.0 L 163.1 157.0 L 163.9 157.0 L 164.6 157.0 L 165.4 157.0 L 166.2 157.0 L 167.0 157.0 L 167.7 157.0 L 168.5 157.0 L 169.3 157.0 L 170.0 157.0 L 170.8 157.0 L 171.6 157.0 L 172.3 157.0 L 173.1 157.0 L 173.9 157.0 L 174.6 157.0 L 175.4 157.0 L 176.2 157.0 L 176.9 157.0 L 177.7 157.0 L 178.5 157.0 L 179.2 157.0 L 180.0 157.0 L 180.8 157.0 L 181.5 157.0 L 182.3 157.0 L 183.1 157.0 L 183.8 157.0 L 184.6 157.0 L 185.4 157.0 L 186.1 157.0 L 186.9 157.0 L 187.7 157.0 L 188.4 157.0 L 189.2 157.0 L 190.0 157.0 L 190.7 157.0 L 191.5 157.0 L 192.3 157.0 L 193.0 157.0 L 193.8 157.0 L 194.6 157.0 L 195.4 157.0 L 196.1 157.0 L 196.9 157.0 L 197.7 157.0 L 198.4 157.0 L 199.2 157.0 L 200.0 157.0 L 200.7 157.0 L 201.5 157.0 L 202.3 157.0 L 203.0 157.0 L 203.8 157.0 L 204.6 157.0 L 205.3 157.0 L 206.1 157.0 L 206.9 157.0 L 207.6 157.0 L 208.4 157.0 L 209.2 157.0 L 209.9 157.0 L 210.7 157.0 L 211.5 157.0 L 212.2 157.0 L 213.0 157.0 L 213.8 157.0 L 214.5 157.0 L 215.3 157.0 L 216.1 157.0 L 216.8 157.0 L 217.6 157.0 L 218.4 157.0 L 219.1 157.0 L 219.9 157.0 L 220.7 157.0 L 221.4 157.0 L 222.2 157.0 L 223.0 157.0 L 223.8 157.0 L 224.5 157.0 L 225.3 157.0 L 226.1 157.0 L 226.8 157.0 L 227.6 157.0 L 228.4 157.0 L 229.1 157.0 L 229.9 157.0 L 230.7 157.0 L 231.4 157.0 L 232.2 157.0 L 233.0 157.0 L 233.7 157.0 L 234.5 157.0 L 235.3 157.0 L 236.0 157.0 L 236.8 157.0 L 237.6 157.0 L 238.3 157.0 L 239.1 157.0 L 239.9 157.0 L 240.6 157.0 L 241.4 157.0 L 242.2 157.0 L 242.9 157.0 L 243.7 157.0 L 244.5 157.0 L 245.2 157.0 L 246.0 157.0 L 246.8 157.0 L 247.5 157.0 L 248.3 157.0 L 249.1 157.0 L 249.8 157.0 L 250.6 157.0 L 251.4 157.0 L 252.2 157.0 L 252.9 157.0 L 253.7 157.0 L 254.5 157.0 L 255.2 157.0 L 256.0 157.0 L 256.8 157.0 L 257.5 157.0 L 258.3 157.0 L 259.1 157.0 L 259.8 157.0 L 260.6 157.0 L 261.4 157.0 L 262.1 157.0 L 262.9 157.0 L 263.7 157.0 L 264.4 157.0 L 265.2 157.0 L 266.0 157.0 L 266.7 157.0 L 267.5 157.0 L 268.3 157.0 L 269.0 157.0 L 269.8 157.0 L 270.6 157.0 L 271.3 157.0 L 272.1 157.0 L 272.9 157.0 L 273.6 157.0 L 274.4 157.0 L 275.2 157.0 L 275.9 157.0 L 276.7 157.0 L 277.5 157.0 L 278.2 157.0 L 279.0 157.0 L 279.8 157.0 L 280.6 157.0 L 281.3 157.0 L 282.1 157.0 L 282.9 157.0 L 283.6 157.0 L 284.4 157.0 L 285.2 157.0 L 285.9 157.0 L 286.7 157.0 L 287.5 157.0 L 288.2 157.0 L 289.0 157.0 L 289.8 157.0 L 290.5 157.0 L 291.3 157.0 L 292.1 157.0 L 292.8 157.0 L 293.6 157.0 L 294.4 157.0 L 295.1 157.0 L 295.9 157.0 L 296.7 157.0 L 297.4 157.0 L 298.2 157.0 L 299.0 157.0 L 299.7 157.0 L 300.5 157.0 L 301.3 157.0 L 302.0 157.0 L 302.8 157.0 L 303.6 157.0 L 304.3 157.0 L 305.1 157.0 L 305.9 157.0 L 306.6 107.3 L 307.4 59.5 L 308.2 54.0 L 309.0 54.0 L 309.7 54.0 L 310.5 54.0 L 311.3 54.0 L 312.0 54.0 L 312.8 54.0 L 313.6 54.0 L 314.3 54.0 L 315.1 54.0 L 315.9 54.0 L 316.6 54.0 L 317.4 54.0 L 318.2 54.0 L 318.9 54.0 L 319.7 54.0 L 320.5 54.0 L 321.2 54.0 L 322.0 54.0" fill="none" stroke="#3B6EA8" stroke-width="2" stroke-linejoin="round" stroke-linecap="round"/><circle cx="322.0" cy="54.0" r="3.5" fill="#C04040" stroke="#FFFFFF" stroke-width="1"/><text x="314.0" y="49.0" fill="#C04040" font-size="11" font-weight="700" text-anchor="end">56</text><text x="38.0" y="169" fill="#7A7A7A" font-size="9" text-anchor="start">May 2025</text><text x="180.0" y="169" fill="#7A7A7A" font-size="9" text-anchor="middle">Nov 2025</text><text x="322.0" y="169" fill="#7A7A7A" font-size="9" text-anchor="end">May 2026</text><text x="170.0" y="187" fill="#7A7A7A" font-size="9" text-anchor="middle">running total · ends at 56 on 2026-05-23</text></svg>