<svg xmlns="http://www.w3.org/2000/svg" xmlns:xlink="http://www.w3.org/1999/xlink" width="340" height="195" viewBox="0 0 340 195" font-family="-apple-system,BlinkMacSystemFont,Segoe UI,Helvetica,Arial,sans-serif"><rect x="0.5" y="0.5" width="339" height="194" rx="8" fill="#FFFFFF" stroke="#E5E5E5" stroke-width="1"/><text x="170.0" y="26" fill="#3B6EA8" font-size="13" font-weight="700" text-anchor="middle">Cumulative contributions</text><line x1="16" y1="38" x2="324" y2="38" stroke="#CCCCCC" stroke-width="0.6"/><line x1="38" y1="157.0" x2="322" y2="157.0" stroke="#E5E5E5" stroke-width="0.5"/><text x="34" y="160.0" fill="#7A7A7A" font-size="8" text-anchor="end">0</text><line x1="38" y1="131.25" x2="322" y2="131.25" stroke="#E5E5E5" stroke-width="0.5"/><text x="34" y="134.25" fill="#7A7A7A" font-size="8" text-anchor="end">14</text><line x1="38" y1="105.5" x2="322" y2="105.5" stroke="#E5E5E5" stroke-width="0.5"/><text x="34" y="108.5" fill="#7A7A7A" font-size="8" text-anchor="end">28</text><line x1="38" y1="79.75" x2="322" y2="79.75" stroke="#E5E5E5" stroke-width="0.5"/><text x="34" y="82.75" fill="#7A7A7A" font-size="8" text-anchor="end">42</text><line x1="38" y1="54.0" x2="322" y2="54.0" stroke="#E5E5E5" stroke-width="0.5"/><text x="34" y="57.0" fill="#7A7A7A" font-size="8" text-anchor="end">56</text><path d="M 38 157.0 L 38.0 157.0 L 38.8 157.0 L 39.5 157.0 L 40.3 157.0 L 41.1 157.0 L 41.8 157.0 L 42.6 157.0 L 43.4 157.0 L 44.2 157.0 L 44.9 157.0 L 45.7 157.0 L 46.5 157.0 L 47.2 157.0 L 48.0 157.0 L 48.8 157.0 L 49.5 157.0 L 50.3 157.0 L 51.1 157.0 L 51.9 157.0 L 52.6 157.0 L 53.4 157.0 L 54.2 157.0 L 54.9 157.0 L 55.7 157.0 L 56.5 157.0 L 57.2 157.0 L 58.0 157.0 L 58.8 157.0 L 59.6 157.0 L 60.3 157.0 L 61.1 157.0 L 61.9 157.0 L 62.6 157.0 L 63.4 157.0 L 64.2 157.0 L 64.9 157.0 L 65.7 157.0 L 66.5 157.0 L 67.2 157.0 L 68.0 157.0 L 68.8 157.0 L 69.6 157.0 L 70.3 157.0 L 71.1 157.0 L 71.9 157.0 L 72.6 157.0 L 73.4 157.0 L 74.2 157.0 L 74.9 157.0 L 75.7 157.0 L 76.5 157.0 L 77.3 157.0 L 78.0 157.0 L 78.8 157.0 L 79.6 157.0 L 80.3 157.0 L 81.1 157.0 L 81.9 157.0 L 82.6 157.0 L 83.4 157.0 L 84.2 157.0 L 84.9 157.0 L 85.7 157.0 L 86.5 157.0 L 87.3 157.0 L 88.0 157.0 L 88.8 157.0 L 89.6 157.0 L 90.3 157.0 L 91.1 157.0 L 91.9 157.0 L 92.6 157.0 L 93.4 157.0 L 94.2 157.0 L 95.0 157.0 L 95.7 157.0 L 96.5 157.0 L 97.3 157.0 L 98.0 157.0 L 98.8 157.0 L 99.6 157.0 L 100.3 157.0 L 101.1 157.0 L 101.9 157.0 L 102.7 157.0 L 103.4 157.0 L 104.2 157.0 L 105.0 157.0 L 105.7 157.0 L 106.5 157.0 L 107.3 157.0 L 108.0 157.0 L 108.8 157.0 L 109.6 157.0 L 110.3 157.0 L 111.1 157.0 L 111.9 157.0 L 112.7 157.0 L 113.4 157.0 L 114.2 157.0 L 115.0 157.0 L 115.7 157.0 L 116.5 157.0 L 117.3 157.0 L 118.0 157.0 L 118.8 157.0 L 119.6 157.0 L 120.4 157.0 L 121.1 157.0 L 121.9 157.0 L 122.7 157.0 L 123.4 157.0 L 124.2 157.0 L 125.0 157.0 L 125.7 157.0 L 126.5 157.0 L 127.3 157.0 L 128.0 157.0 L 128.8 157.0 L 129.6 157.0 L 130.4 157.0 L 131.1 157.0 L 131.9 157.0 L 132.7 157.0 L 133.4 157.0 L 134.2 157.0 L 135.0 157.0 L 135.7 157.0 L 136.5 157.0 L 137.3 157.0 L 138.1 157.0 L 138.8 157.0 L 139.6 157.0 L 140.4 157.0 L 141.1 157.0 L 141.9 157.0 L 142.7 157.0 L 143.4 157.0 L 144.2 157.0 L 145.0 157.0 L 145.8 157.0 L 146.5 157.0 L 147.3 157.0 L 148.1 157.0 L 148.8 157.0 L 149.6 157.0 L 150.4 157.0 L 151.1 157.0 L 151.9 157.0 L 152.7 157.0 L 153.4 157.0 L 154.2 157.0 L 155.0 157.0 L 155.8 157.0 L 156.5 157.0 L 157.3 157.0 L 158.1 157.0 L 158.8 157.0 L 159.6 157.0 L 160.4 157.0 L 161.1 157.0 L 161.9 157.0 L 162.7 157.0 L 163.5 157.0 L 164.2 157.0 L 165.0 157.0 L 165.8 157.0 L 166.5 157.0 L 167.3 157.0 L 168.1 157.0 L 168.8 157.0 L 169.6 157.0 L 170.4 157.0 L 171.1 157.0 L 171.9 157.0 L 172.7 157.0 L 173.5 157.0 L 174.2 157.0 L 175.0 157.0 L 175.8 157.0 L 176.5 157.0 L 177.3 157.0 L 178.1 157.0 L 178.8 157.0 L 179.6 157.0 L 180.4 157.0 L 181.2 157.0 L 181.9 157.0 L 182.7 157.0 L 183.5 157.0 L 184.2 157.0 L 185.0 157.0 L 185.8 157.0 L 186.5 157.0 L 187.3 157.0 L 188.1 157.0 L 188.9 157.0 L 189.6 157.0 L 190.4 157.0 L 191.2 157.0 L 191.9 157.0 L 192.7 157.0 L 193.5 157.0 L 194.2 157.0 L 195.0 157.0 L 195.8 157.0 L 196.5 157.0 L 197.3 157.0 L 198.1 157.0 L 198.9 157.0 L 199.6 157.0 L 200.4 157.0 L 201.2 157.0 L 201.9 157.0 L 202.7 157.0 L 203.5 157.0 L 204.2 157.0 L 205.0 157.0 L 205.8 157.0 L 206.6 157.0 L 207.3 157.0 L 208.1 157.0 L 208.9 157.0 L 209.6 157.0 L 210.4 157.0 L 211.2 157.0 L 211.9 157.0 L 212.7 157.0 L 213.5 157.0 L 214.2 157.0 L 215.0 157.0 L 215.8 157.0 L 216.6 157.0 L 217.3 157.0 L 218.1 157.0 L 218.9 157.0 L 219.6 157.0 L 220.4 157.0 L 221.2 157.0 L 221.9 157.0 L 222.7 157.0 L 223.5 157.0 L 224.3 157.0 L 225.0 157.0 L 225.8 157.0 L 226.6 157.0 L 227.3 157.0 L 228.1 157.0 L 228.9 157.0 L 229.6 157.0 L 230.4 157.0 L 231.2 157.0 L 232.0 157.0 L 232.7 157.0 L 233.5 157.0 L 234.3 157.0 L 235.0 157.0 L 235.8 157.0 L 236.6 157.0 L 237.3 157.0 L 238.1 157.0 L 238.9 157.0 L 239.6 157.0 L 240.4 157.0 L 241.2 157.0 L 242.0 157.0 L 242.7 157.0 L 243.5 157.0 L 244.3 157.0 L 245.0 157.0 L 245.8 157.0 L 246.6 157.0 L 247.3 157.0 L 248.1 157.0 L 248.9 157.0 L 249.7 157.0 L 250.4 157.0 L 251.2 157.0 L 252.0 157.0 L 252.7 157.0 L 253.5 157.0 L 254.3 157.0 L 255.0 157.0 L 255.8 157.0 L 256.6 157.0 L 257.3 157.0 L 258.1 157.0 L 258.9 157.0 L 259.7 157.0 L 260.4 157.0 L 261.2 157.0 L 262.0 157.0 L 262.7 157.0 L 263.5 157.0 L 264.3 157.0 L 265.0 157.0 L 265.8 157.0 L 266.6 157.0 L 267.4 157.0 L 268.1 157.0 L 268.9 157.0 L 269.7 157.0 L 270.4 157.0 L 271.2 157.0 L 272.0 157.0 L 272.7 157.0 L 273.5 157.0 L 274.3 157.0 L 275.1 157.0 L 275.8 157.0 L 276.6 157.0 L 277.4 157.0 L 278.1 157.0 L 278.9 157.0 L 279.7 157.0 L 280.4 157.0 L 281.2 157.0 L 282.0 157.0 L 282.7 157.0 L 283.5 157.0 L 284.3 157.0 L 285.1 157.0 L 285.8 157.0 L 286.6 157.0 L 287.4 157.0 L 288.1 157.0 L 288.9 157.0 L 289.7 157.0 L 290.4 157.0 L 291.2 157.0 L 292.0 157.0 L 292.8 157.0 L 293.5 157.0 L 294.3 157.0 L 295.1 157.0 L 295.8 157.0 L 296.6 157.0 L 297.4 157.0 L 298.1 157.0 L 298.9 157.0 L 299.7 157.0 L 300.4 157.0 L 301.2 157.0 L 302.0 157.0 L 302.8 157.0 L 303.5 157.0 L 304.3 157.0 L 305.1 157.0 L 305.8 157.0 L 306.6 157.0 L 307.4 157.0 L 308.1 157.0 L 308.9 157.0 L 309.7 157.0 L 310.5 157.0 L 311.2 157.0 L 312.0 157.0 L 312.8 157.0 L 313.5 157.0 L 314.3 157.0 L 315.1 157.0 L 315.8 157.0 L 316.6 157.0 L 317.4 157.0 L 318.2 107.3 L 318.9 59.5 L 319.7 54.0 L 320.5 54.0 L 321.2 54.0 L 322.0 54.0 L 322.0 157.0 Z" fill="#3B6EA8" fill-opacity="0.18" stroke="none"/><path d="M 38.0 157.0 L 38.8 157.0 L 39.5 157.0 L 40.3 157.0 L 41.1 157.0 L 41.8 157.0 L 42.6 157.0 L 43.4 157.0 L 44.2 157.0 L 44.9 157.0 L 45.7 157.0 L 46.5 157.0 L 47.2 157.0 L 48.0 157.0 L 48.8 157.0 L 49.5 157.0 L 50.3 157.0 L 51.1 157.0 L 51.9 157.0 L 52.6 157.0 L 53.4 157.0 L 54.2 157.0 L 54.9 157.0 L 55.7 157.0 L 56.5 157.0 L 57.2 157.0 L 58.0 157.0 L 58.8 157.0 L 59.6 157.0 L 60.3 157.0 L 61.1 157.0 L 61.9 157.0 L 62.6 157.0 L 63.4 157.0 L 64.2 157.0 L 64.9 157.0 L 65.7 157.0 L 66.5 157.0 L 67.2 157.0 L 68.0 157.0 L 68.8 157.0 L 69.6 157.0 L 70.3 157.0 L 71.1 157.0 L 71.9 157.0 L 72.6 157.0 L 73.4 157.0 L 74.2 157.0 L 74.9 157.0 L 75.7 157.0 L 76.5 157.0 L 77.3 157.0 L 78.0 157.0 L 78.8 157.0 L 79.6 157.0 L 80.3 157.0 L 81.1 157.0 L 81.9 157.0 L 82.6 157.0 L 83.4 157.0 L 84.2 157.0 L 84.9 157.0 L 85.7 157.0 L 86.5 157.0 L 87.3 157.0 L 88.0 157.0 L 88.8 157.0 L 89.6 157.0 L 90.3 157.0 L 91.1 157.0 L 91.9 157.0 L 92.6 157.0 L 93.4 157.0 L 94.2 157.0 L 95.0 157.0 L 95.7 157.0 L 96.5 157.0 L 97.3 157.0 L 98.0 157.0 L 98.8 157.0 L 99.6 157.0 L 100.3 157.0 L 101.1 157.0 L 101.9 157.0 L 102.7 157.0 L 103.4 157.0 L 104.2 157.0 L 105.0 157.0 L 105.7 157.0 L 106.5 157.0 L 107.3 157.0 L 108.0 157.0 L 108.8 157.0 L 109.6 157.0 L 110.3 157.0 L 111.1 157.0 L 111.9 157.0 L 112.7 157.0 L 113.4 157.0 L 114.2 157.0 L 115.0 157.0 L 115.7 157.0 L 116.5 157.0 L 117.3 157.0 L 118.0 157.0 L 118.8 157.0 L 119.6 157.0 L 120.4 157.0 L 121.1 157.0 L 121.9 157.0 L 122.7 157.0 L 123.4 157.0 L 124.2 157.0 L 125.0 157.0 L 125.7 157.0 L 126.5 157.0 L 127.3 157.0 L 128.0 157.0 L 128.8 157.0 L 129.6 157.0 L 130.4 157.0 L 131.1 157.0 L 131.9 157.0 L 132.7 157.0 L 133.4 157.0 L 134.2 157.0 L 135.0 157.0 L 135.7 157.0 L 136.5 157.0 L 137.3 157.0 L 138.1 157.0 L 138.8 157.0 L 139.6 157.0 L 140.4 157.0 L 141.1 157.0 L 141.9 157.0 L 142.7 157.0 L 143.4 157.0 L 144.2 157.0 L 145.0 157.0 L 145.8 157.0 L 146.5 157.0 L 147.3 157.0 L 148.1 157.0 L 148.8 157.0 L 149.6 157.0 L 150.4 157.0 L 151.1 157.0 L 151.9 157.0 L 152.7 157.0 L 153.4 157.0 L 154.2 157.0 L 155.0 157.0 L 155.8 157.0 L 156.5 157.0 L 157.3 157.0 L 158.1 157.0 L 158.8 157.0 L 159.6 157.0 L 160.4 157.0 L 161.1 157.0 L 161.9 157.0 L 162.7 157.0 L 163.5 157.0 L 164.2 157.0 L 165.0 157.0 L 165.8 157.0 L 166.5 157.0 L 167.3 157.0 L 168.1 157.0 L 168.8 157.0 L 169.6 157.0 L 170.4 157.0 L 171.1 157.0 L 171.9 157.0 L 172.7 157.0 L 173.5 157.0 L 174.2 157.0 L 175.0 157.0 L 175.8 157.0 L 176.5 157.0 L 177.3 157.0 L 178.1 157.0 L 178.8 157.0 L 179.6 157.0 L 180.4 157.0 L 181.2 157.0 L 181.9 157.0 L 182.7 157.0 L 183.5 157.0 L 184.2 157.0 L 185.0 157.0 L 185.8 157.0 L 186.5 157.0 L 187.3 157.0 L 188.1 157.0 L 188.9 157.0 L 189.6 157.0 L 190.4 157.0 L 191.2 157.0 L 191.9 157.0 L 192.7 157.0 L 193.5 157.0 L 194.2 157.0 L 195.0 157.0 L 195.8 157.0 L 196.5 157.0 L 197.3 157.0 L 198.1 157.0 L 198.9 157.0 L 199.6 157.0 L 200.4 157.0 L 201.2 157.0 L 201.9 157.0 L 202.7 157.0 L 203.5 157.0 L 204.2 157.0 L 205.0 157.0 L 205.8 157.0 L 206.6 157.0 L 207.3 157.0 L 208.1 157.0 L 208.9 157.0 L 209.6 157.0 L 210.4 157.0 L 211.2 157.0 L 211.9 157.0 L 212.7 157.0 L 213.5 157.0 L 214.2 157.0 L 215.0 157.0 L 215.8 157.0 L 216.6 157.0 L 217.3 157.0 L 218.1 157.0 L 218.9 157.0 L 219.6 157.0 L 220.4 157.0 L 221.2 157.0 L 221.9 157.0 L 222.7 157.0 L 223.5 157.0 L 224.3 157.0 L 225.0 157.0 L 225.8 157.0 L 226.6 157.0 L 227.3 157.0 L 228.1 157.0 L 228.9 157.0 L 229.6 157.0 L 230.4 157.0 L 231.2 157.0 L 232.0 157.0 L 232.7 157.0 L 233.5 157.0 L 234.3 157.0 L 235.0 157.0 L 235.8 157.0 L 236.6 157.0 L 237.3 157.0 L 238.1 157.0 L 238.9 157.0 L 239.6 157.0 L 240.4 157.0 L 241.2 157.0 L 242.0 157.0 L 242.7 157.0 L 243.5 157.0 L 244.3 157.0 L 245.0 157.0 L 245.8 157.0 L 246.6 157.0 L 247.3 157.0 L 248.1 157.0 L 248.9 157.0 L 249.7 157.0 L 250.4 157.0 L 251.2 157.0 L 252.0 157.0 L 252.7 157.0 L 253.5 157.0 L 254.3 157.0 L 255.0 157.0 L 255.8 157.0 L 256.6 157.0 L 257.3 157.0 L 258.1 157.0 L 258.9 157.0 L 259.7 157.0 L 260.4 157.0 L 261.2 157.0 L 262.0 157.0 L 262.7 157.0 L 263.5 157.0 L 264.3 157.0 L 265.0 157.0 L 265.8 157.0 L 266.6 157.0 L 267.4 157.0 L 268.1 157.0 L 268.9 157.0 L 269.7 157.0 L 270.4 157.0 L 271.2 157.0 L 272.0 157.0 L 272.7 157.0 L 273.5 157.0 L 274.3 157.0 L 275.1 157.0 L 275.8 157.0 L 276.6 157.0 L 277.4 157.0 L 278.1 157.0 L 278.9 157.0 L 279.7 157.0 L 280.4 157.0 L 281.2 157.0 L 282.0 157.0 L 282.7 157.0 L 283.5 157.0 L 284.3 157.0 L 285.1 157.0 L 285.8 157.0 L 286.6 157.0 L 287.4 157.0 L 288.1 157.0 L 288.9 157.0 L 289.7 157.0 L 290.4 157.0 L 291.2 157.0 L 292.0 157.0 L 292.8 157.0 L 293.5 157.0 L 294.3 157.0 L 295.1 157.0 L 295.8 157.0 L 296.6 157.0 L 297.4 157.0 L 298.1 157.0 L 298.9 157.0 L 299.7 157.0 L 300.4 157.0 L 301.2 157.0 L 302.0 157.0 L 302.8 157.0 L 303.5 157.0 L 304.3 157.0 L 305.1 157.0 L 305.8 157.0 L 306.6 157.0 L 307.4 157.0 L 308.1 157.0 L 308.9 157.0 L 309.7 157.0 L 310.5 157.0 L 311.2 157.0 L 312.0 157.0 L 312.8 157.0 L 313.5 157.0 L 314.3 157.0 L 315.1 157.0 L 315.8 157.0 L 316.6 157.0 L 317.4 157.0 L 318.2 107.3 L 318.9 59.5 L 319.7 54.0 L 320.5 54.0 L 321.2 54.0 L 322.0 54.0" fill="none" stroke="#3B6EA8" stroke-width="2" stroke-linejoin="round" stroke-linecap="round"/><circle cx="322.0" cy="54.0" r="3.5" fill="#C04040" stroke="#FFFFFF" stroke-width="1"/><text x="314.0" y="49.0" fill="#C04040" font-size="11" font-weight="700" text-anchor="end">56</text><text x="38.0" y="169" fill="#7A7A7A" font-size="9" text-anchor="start">May 2025</text><text x="180.4" y="169" fill="#7A7A7A" font-size="9" text-anchor="middle">Nov 2025</text><text x="322.0" y="169" fill="#7A7A7A" font-size="9" text-anchor="end">May 2026</text><text x="170.0" y="187" fill="#7A7A7A" font-size="9" text-anchor="middle">running total · ends at 56 on 2026-05-08</text></svg>