<svg xmlns="http://www.w3.org/2000/svg" xmlns:xlink="http://www.w3.org/1999/xlink" width="340" height="195" viewBox="0 0 340 195" font-family="-apple-system,BlinkMacSystemFont,Segoe UI,Helvetica,Arial,sans-serif"><rect x="0.5" y="0.5" width="339" height="194" rx="8" fill="#FFFFFF" stroke="#E5E5E5" stroke-width="1"/><text x="170.0" y="26" fill="#3B6EA8" font-size="13" font-weight="700" text-anchor="middle">Cumulative contributions</text><line x1="16" y1="38" x2="324" y2="38" stroke="#CCCCCC" stroke-width="0.6"/><line x1="38" y1="157.0" x2="322" y2="157.0" stroke="#E5E5E5" stroke-width="0.5"/><text x="34" y="160.0" fill="#7A7A7A" font-size="8" text-anchor="end">0</text><line x1="38" y1="131.25" x2="322" y2="131.25" stroke="#E5E5E5" stroke-width="0.5"/><text x="34" y="134.25" fill="#7A7A7A" font-size="8" text-anchor="end">14</text><line x1="38" y1="105.5" x2="322" y2="105.5" stroke="#E5E5E5" stroke-width="0.5"/><text x="34" y="108.5" fill="#7A7A7A" font-size="8" text-anchor="end">28</text><line x1="38" y1="79.75" x2="322" y2="79.75" stroke="#E5E5E5" stroke-width="0.5"/><text x="34" y="82.75" fill="#7A7A7A" font-size="8" text-anchor="end">42</text><line x1="38" y1="54.0" x2="322" y2="54.0" stroke="#E5E5E5" stroke-width="0.5"/><text x="34" y="57.0" fill="#7A7A7A" font-size="8" text-anchor="end">56</text><path d="M 38 157.0 L 38.0 157.0 L 38.8 157.0 L 39.5 157.0 L 40.3 157.0 L 41.1 157.0 L 41.9 157.0 L 42.6 157.0 L 43.4 157.0 L 44.2 157.0 L 45.0 157.0 L 45.7 157.0 L 46.5 157.0 L 47.3 157.0 L 48.1 157.0 L 48.8 157.0 L 49.6 157.0 L 50.4 157.0 L 51.2 157.0 L 51.9 157.0 L 52.7 157.0 L 53.5 157.0 L 54.3 157.0 L 55.0 157.0 L 55.8 157.0 L 56.6 157.0 L 57.3 157.0 L 58.1 157.0 L 58.9 157.0 L 59.7 157.0 L 60.4 157.0 L 61.2 157.0 L 62.0 157.0 L 62.8 157.0 L 63.5 157.0 L 64.3 157.0 L 65.1 157.0 L 65.9 157.0 L 66.6 157.0 L 67.4 157.0 L 68.2 157.0 L 69.0 157.0 L 69.7 157.0 L 70.5 157.0 L 71.3 157.0 L 72.0 157.0 L 72.8 157.0 L 73.6 157.0 L 74.4 157.0 L 75.1 157.0 L 75.9 157.0 L 76.7 157.0 L 77.5 157.0 L 78.2 157.0 L 79.0 157.0 L 79.8 157.0 L 80.6 157.0 L 81.3 157.0 L 82.1 157.0 L 82.9 157.0 L 83.7 157.0 L 84.4 157.0 L 85.2 157.0 L 86.0 157.0 L 86.8 157.0 L 87.5 157.0 L 88.3 157.0 L 89.1 157.0 L 89.8 157.0 L 90.6 157.0 L 91.4 157.0 L 92.2 157.0 L 92.9 157.0 L 93.7 157.0 L 94.5 157.0 L 95.3 157.0 L 96.0 157.0 L 96.8 157.0 L 97.6 157.0 L 98.4 157.0 L 99.1 157.0 L 99.9 157.0 L 100.7 157.0 L 101.5 157.0 L 102.2 157.0 L 103.0 157.0 L 103.8 157.0 L 104.6 157.0 L 105.3 157.0 L 106.1 157.0 L 106.9 157.0 L 107.6 157.0 L 108.4 157.0 L 109.2 157.0 L 110.0 157.0 L 110.7 157.0 L 111.5 157.0 L 112.3 157.0 L 113.1 157.0 L 113.8 157.0 L 114.6 157.0 L 115.4 157.0 L 116.2 157.0 L 116.9 157.0 L 117.7 157.0 L 118.5 157.0 L 119.3 157.0 L 120.0 157.0 L 120.8 157.0 L 121.6 157.0 L 122.3 157.0 L 123.1 157.0 L 123.9 157.0 L 124.7 157.0 L 125.4 157.0 L 126.2 157.0 L 127.0 157.0 L 127.8 157.0 L 128.5 157.0 L 129.3 157.0 L 130.1 157.0 L 130.9 157.0 L 131.6 157.0 L 132.4 157.0 L 133.2 157.0 L 134.0 157.0 L 134.7 157.0 L 135.5 157.0 L 136.3 157.0 L 137.1 157.0 L 137.8 157.0 L 138.6 157.0 L 139.4 157.0 L 140.1 157.0 L 140.9 157.0 L 141.7 157.0 L 142.5 157.0 L 143.2 157.0 L 144.0 157.0 L 144.8 157.0 L 145.6 157.0 L 146.3 157.0 L 147.1 157.0 L 147.9 157.0 L 148.7 157.0 L 149.4 157.0 L 150.2 157.0 L 151.0 157.0 L 151.8 157.0 L 152.5 157.0 L 153.3 157.0 L 154.1 157.0 L 154.9 157.0 L 155.6 157.0 L 156.4 157.0 L 157.2 157.0 L 157.9 157.0 L 158.7 157.0 L 159.5 157.0 L 160.3 157.0 L 161.0 157.0 L 161.8 157.0 L 162.6 157.0 L 163.4 157.0 L 164.1 157.0 L 164.9 157.0 L 165.7 157.0 L 166.5 157.0 L 167.2 157.0 L 168.0 157.0 L 168.8 157.0 L 169.6 157.0 L 170.3 157.0 L 171.1 157.0 L 171.9 157.0 L 172.6 157.0 L 173.4 157.0 L 174.2 157.0 L 175.0 157.0 L 175.7 157.0 L 176.5 157.0 L 177.3 157.0 L 178.1 157.0 L 178.8 157.0 L 179.6 157.0 L 180.4 157.0 L 181.2 157.0 L 181.9 157.0 L 182.7 157.0 L 183.5 157.0 L 184.3 157.0 L 185.0 157.0 L 185.8 157.0 L 186.6 157.0 L 187.4 157.0 L 188.1 157.0 L 188.9 157.0 L 189.7 157.0 L 190.4 157.0 L 191.2 157.0 L 192.0 157.0 L 192.8 157.0 L 193.5 157.0 L 194.3 157.0 L 195.1 157.0 L 195.9 157.0 L 196.6 157.0 L 197.4 157.0 L 198.2 157.0 L 199.0 157.0 L 199.7 157.0 L 200.5 157.0 L 201.3 157.0 L 202.1 157.0 L 202.8 157.0 L 203.6 157.0 L 204.4 157.0 L 205.1 157.0 L 205.9 157.0 L 206.7 157.0 L 207.5 157.0 L 208.2 157.0 L 209.0 157.0 L 209.8 157.0 L 210.6 157.0 L 211.3 157.0 L 212.1 157.0 L 212.9 157.0 L 213.7 157.0 L 214.4 157.0 L 215.2 157.0 L 216.0 157.0 L 216.8 157.0 L 217.5 157.0 L 218.3 157.0 L 219.1 157.0 L 219.9 157.0 L 220.6 157.0 L 221.4 157.0 L 222.2 157.0 L 222.9 157.0 L 223.7 157.0 L 224.5 157.0 L 225.3 157.0 L 226.0 157.0 L 226.8 157.0 L 227.6 157.0 L 228.4 157.0 L 229.1 157.0 L 229.9 157.0 L 230.7 157.0 L 231.5 157.0 L 232.2 157.0 L 233.0 157.0 L 233.8 157.0 L 234.6 157.0 L 235.3 157.0 L 236.1 157.0 L 236.9 157.0 L 237.7 157.0 L 238.4 157.0 L 239.2 157.0 L 240.0 157.0 L 240.7 157.0 L 241.5 157.0 L 242.3 157.0 L 243.1 157.0 L 243.8 157.0 L 244.6 157.0 L 245.4 157.0 L 246.2 157.0 L 246.9 157.0 L 247.7 157.0 L 248.5 157.0 L 249.3 157.0 L 250.0 157.0 L 250.8 157.0 L 251.6 157.0 L 252.4 157.0 L 253.1 157.0 L 253.9 157.0 L 254.7 157.0 L 255.4 157.0 L 256.2 157.0 L 257.0 157.0 L 257.8 157.0 L 258.5 157.0 L 259.3 157.0 L 260.1 157.0 L 260.9 157.0 L 261.6 157.0 L 262.4 157.0 L 263.2 157.0 L 264.0 157.0 L 264.7 157.0 L 265.5 157.0 L 266.3 157.0 L 267.1 157.0 L 267.8 157.0 L 268.6 157.0 L 269.4 157.0 L 270.2 157.0 L 270.9 157.0 L 271.7 157.0 L 272.5 157.0 L 273.2 157.0 L 274.0 157.0 L 274.8 157.0 L 275.6 157.0 L 276.3 157.0 L 277.1 157.0 L 277.9 157.0 L 278.7 157.0 L 279.4 157.0 L 280.2 157.0 L 281.0 157.0 L 281.8 157.0 L 282.5 157.0 L 283.3 157.0 L 284.1 157.0 L 284.9 157.0 L 285.6 157.0 L 286.4 157.0 L 287.2 157.0 L 288.0 157.0 L 288.7 157.0 L 289.5 157.0 L 290.3 157.0 L 291.0 157.0 L 291.8 157.0 L 292.6 157.0 L 293.4 157.0 L 294.1 157.0 L 294.9 157.0 L 295.7 157.0 L 296.5 157.0 L 297.2 157.0 L 298.0 157.0 L 298.8 157.0 L 299.6 157.0 L 300.3 157.0 L 301.1 157.0 L 301.9 157.0 L 302.7 157.0 L 303.4 157.0 L 304.2 157.0 L 305.0 157.0 L 305.7 157.0 L 306.5 157.0 L 307.3 157.0 L 308.1 157.0 L 308.8 107.3 L 309.6 59.5 L 310.4 54.0 L 311.2 54.0 L 311.9 54.0 L 312.7 54.0 L 313.5 54.0 L 314.3 54.0 L 315.0 54.0 L 315.8 54.0 L 316.6 54.0 L 317.4 54.0 L 318.1 54.0 L 318.9 54.0 L 319.7 54.0 L 320.5 54.0 L 321.2 54.0 L 322.0 54.0 L 322.0 157.0 Z" fill="#3B6EA8" fill-opacity="0.18" stroke="none"/><path d="M 38.0 157.0 L 38.8 157.0 L 39.5 157.0 L 40.3 157.0 L 41.1 157.0 L 41.9 157.0 L 42.6 157.0 L 43.4 157.0 L 44.2 157.0 L 45.0 157.0 L 45.7 157.0 L 46.5 157.0 L 47.3 157.0 L 48.1 157.0 L 48.8 157.0 L 49.6 157.0 L 50.4 157.0 L 51.2 157.0 L 51.9 157.0 L 52.7 157.0 L 53.5 157.0 L 54.3 157.0 L 55.0 157.0 L 55.8 157.0 L 56.6 157.0 L 57.3 157.0 L 58.1 157.0 L 58.9 157.0 L 59.7 157.0 L 60.4 157.0 L 61.2 157.0 L 62.0 157.0 L 62.8 157.0 L 63.5 157.0 L 64.3 157.0 L 65.1 157.0 L 65.9 157.0 L 66.6 157.0 L 67.4 157.0 L 68.2 157.0 L 69.0 157.0 L 69.7 157.0 L 70.5 157.0 L 71.3 157.0 L 72.0 157.0 L 72.8 157.0 L 73.6 157.0 L 74.4 157.0 L 75.1 157.0 L 75.9 157.0 L 76.7 157.0 L 77.5 157.0 L 78.2 157.0 L 79.0 157.0 L 79.8 157.0 L 80.6 157.0 L 81.3 157.0 L 82.1 157.0 L 82.9 157.0 L 83.7 157.0 L 84.4 157.0 L 85.2 157.0 L 86.0 157.0 L 86.8 157.0 L 87.5 157.0 L 88.3 157.0 L 89.1 157.0 L 89.8 157.0 L 90.6 157.0 L 91.4 157.0 L 92.2 157.0 L 92.9 157.0 L 93.7 157.0 L 94.5 157.0 L 95.3 157.0 L 96.0 157.0 L 96.8 157.0 L 97.6 157.0 L 98.4 157.0 L 99.1 157.0 L 99.9 157.0 L 100.7 157.0 L 101.5 157.0 L 102.2 157.0 L 103.0 157.0 L 103.8 157.0 L 104.6 157.0 L 105.3 157.0 L 106.1 157.0 L 106.9 157.0 L 107.6 157.0 L 108.4 157.0 L 109.2 157.0 L 110.0 157.0 L 110.7 157.0 L 111.5 157.0 L 112.3 157.0 L 113.1 157.0 L 113.8 157.0 L 114.6 157.0 L 115.4 157.0 L 116.2 157.0 L 116.9 157.0 L 117.7 157.0 L 118.5 157.0 L 119.3 157.0 L 120.0 157.0 L 120.8 157.0 L 121.6 157.0 L 122.3 157.0 L 123.1 157.0 L 123.9 157.0 L 124.7 157.0 L 125.4 157.0 L 126.2 157.0 L 127.0 157.0 L 127.8 157.0 L 128.5 157.0 L 129.3 157.0 L 130.1 157.0 L 130.9 157.0 L 131.6 157.0 L 132.4 157.0 L 133.2 157.0 L 134.0 157.0 L 134.7 157.0 L 135.5 157.0 L 136.3 157.0 L 137.1 157.0 L 137.8 157.0 L 138.6 157.0 L 139.4 157.0 L 140.1 157.0 L 140.9 157.0 L 141.7 157.0 L 142.5 157.0 L 143.2 157.0 L 144.0 157.0 L 144.8 157.0 L 145.6 157.0 L 146.3 157.0 L 147.1 157.0 L 147.9 157.0 L 148.7 157.0 L 149.4 157.0 L 150.2 157.0 L 151.0 157.0 L 151.8 157.0 L 152.5 157.0 L 153.3 157.0 L 154.1 157.0 L 154.9 157.0 L 155.6 157.0 L 156.4 157.0 L 157.2 157.0 L 157.9 157.0 L 158.7 157.0 L 159.5 157.0 L 160.3 157.0 L 161.0 157.0 L 161.8 157.0 L 162.6 157.0 L 163.4 157.0 L 164.1 157.0 L 164.9 157.0 L 165.7 157.0 L 166.5 157.0 L 167.2 157.0 L 168.0 157.0 L 168.8 157.0 L 169.6 157.0 L 170.3 157.0 L 171.1 157.0 L 171.9 157.0 L 172.6 157.0 L 173.4 157.0 L 174.2 157.0 L 175.0 157.0 L 175.7 157.0 L 176.5 157.0 L 177.3 157.0 L 178.1 157.0 L 178.8 157.0 L 179.6 157.0 L 180.4 157.0 L 181.2 157.0 L 181.9 157.0 L 182.7 157.0 L 183.5 157.0 L 184.3 157.0 L 185.0 157.0 L 185.8 157.0 L 186.6 157.0 L 187.4 157.0 L 188.1 157.0 L 188.9 157.0 L 189.7 157.0 L 190.4 157.0 L 191.2 157.0 L 192.0 157.0 L 192.8 157.0 L 193.5 157.0 L 194.3 157.0 L 195.1 157.0 L 195.9 157.0 L 196.6 157.0 L 197.4 157.0 L 198.2 157.0 L 199.0 157.0 L 199.7 157.0 L 200.5 157.0 L 201.3 157.0 L 202.1 157.0 L 202.8 157.0 L 203.6 157.0 L 204.4 157.0 L 205.1 157.0 L 205.9 157.0 L 206.7 157.0 L 207.5 157.0 L 208.2 157.0 L 209.0 157.0 L 209.8 157.0 L 210.6 157.0 L 211.3 157.0 L 212.1 157.0 L 212.9 157.0 L 213.7 157.0 L 214.4 157.0 L 215.2 157.0 L 216.0 157.0 L 216.8 157.0 L 217.5 157.0 L 218.3 157.0 L 219.1 157.0 L 219.9 157.0 L 220.6 157.0 L 221.4 157.0 L 222.2 157.0 L 222.9 157.0 L 223.7 157.0 L 224.5 157.0 L 225.3 157.0 L 226.0 157.0 L 226.8 157.0 L 227.6 157.0 L 228.4 157.0 L 229.1 157.0 L 229.9 157.0 L 230.7 157.0 L 231.5 157.0 L 232.2 157.0 L 233.0 157.0 L 233.8 157.0 L 234.6 157.0 L 235.3 157.0 L 236.1 157.0 L 236.9 157.0 L 237.7 157.0 L 238.4 157.0 L 239.2 157.0 L 240.0 157.0 L 240.7 157.0 L 241.5 157.0 L 242.3 157.0 L 243.1 157.0 L 243.8 157.0 L 244.6 157.0 L 245.4 157.0 L 246.2 157.0 L 246.9 157.0 L 247.7 157.0 L 248.5 157.0 L 249.3 157.0 L 250.0 157.0 L 250.8 157.0 L 251.6 157.0 L 252.4 157.0 L 253.1 157.0 L 253.9 157.0 L 254.7 157.0 L 255.4 157.0 L 256.2 157.0 L 257.0 157.0 L 257.8 157.0 L 258.5 157.0 L 259.3 157.0 L 260.1 157.0 L 260.9 157.0 L 261.6 157.0 L 262.4 157.0 L 263.2 157.0 L 264.0 157.0 L 264.7 157.0 L 265.5 157.0 L 266.3 157.0 L 267.1 157.0 L 267.8 157.0 L 268.6 157.0 L 269.4 157.0 L 270.2 157.0 L 270.9 157.0 L 271.7 157.0 L 272.5 157.0 L 273.2 157.0 L 274.0 157.0 L 274.8 157.0 L 275.6 157.0 L 276.3 157.0 L 277.1 157.0 L 277.9 157.0 L 278.7 157.0 L 279.4 157.0 L 280.2 157.0 L 281.0 157.0 L 281.8 157.0 L 282.5 157.0 L 283.3 157.0 L 284.1 157.0 L 284.9 157.0 L 285.6 157.0 L 286.4 157.0 L 287.2 157.0 L 288.0 157.0 L 288.7 157.0 L 289.5 157.0 L 290.3 157.0 L 291.0 157.0 L 291.8 157.0 L 292.6 157.0 L 293.4 157.0 L 294.1 157.0 L 294.9 157.0 L 295.7 157.0 L 296.5 157.0 L 297.2 157.0 L 298.0 157.0 L 298.8 157.0 L 299.6 157.0 L 300.3 157.0 L 301.1 157.0 L 301.9 157.0 L 302.7 157.0 L 303.4 157.0 L 304.2 157.0 L 305.0 157.0 L 305.7 157.0 L 306.5 157.0 L 307.3 157.0 L 308.1 157.0 L 308.8 107.3 L 309.6 59.5 L 310.4 54.0 L 311.2 54.0 L 311.9 54.0 L 312.7 54.0 L 313.5 54.0 L 314.3 54.0 L 315.0 54.0 L 315.8 54.0 L 316.6 54.0 L 317.4 54.0 L 318.1 54.0 L 318.9 54.0 L 319.7 54.0 L 320.5 54.0 L 321.2 54.0 L 322.0 54.0" fill="none" stroke="#3B6EA8" stroke-width="2" stroke-linejoin="round" stroke-linecap="round"/><circle cx="322.0" cy="54.0" r="3.5" fill="#C04040" stroke="#FFFFFF" stroke-width="1"/><text x="314.0" y="49.0" fill="#C04040" font-size="11" font-weight="700" text-anchor="end">56</text><text x="38.0" y="169" fill="#7A7A7A" font-size="9" text-anchor="start">May 2025</text><text x="180.4" y="169" fill="#7A7A7A" font-size="9" text-anchor="middle">Nov 2025</text><text x="322.0" y="169" fill="#7A7A7A" font-size="9" text-anchor="end">May 2026</text><text x="170.0" y="187" fill="#7A7A7A" font-size="9" text-anchor="middle">running total · ends at 56 on 2026-05-20</text></svg>