<svg xmlns="http://www.w3.org/2000/svg" xmlns:xlink="http://www.w3.org/1999/xlink" width="340" height="195" viewBox="0 0 340 195" font-family="-apple-system,BlinkMacSystemFont,Segoe UI,Helvetica,Arial,sans-serif"><rect x="0.5" y="0.5" width="339" height="194" rx="8" fill="#FFFFFF" stroke="#E5E5E5" stroke-width="1"/><text x="170.0" y="26" fill="#3B6EA8" font-size="13" font-weight="700" text-anchor="middle">Cumulative contributions</text><line x1="16" y1="38" x2="324" y2="38" stroke="#CCCCCC" stroke-width="0.6"/><line x1="38" y1="157.0" x2="322" y2="157.0" stroke="#E5E5E5" stroke-width="0.5"/><text x="34" y="160.0" fill="#7A7A7A" font-size="8" text-anchor="end">0</text><line x1="38" y1="131.25" x2="322" y2="131.25" stroke="#E5E5E5" stroke-width="0.5"/><text x="34" y="134.25" fill="#7A7A7A" font-size="8" text-anchor="end">26</text><line x1="38" y1="105.5" x2="322" y2="105.5" stroke="#E5E5E5" stroke-width="0.5"/><text x="34" y="108.5" fill="#7A7A7A" font-size="8" text-anchor="end">53</text><line x1="38" y1="79.75" x2="322" y2="79.75" stroke="#E5E5E5" stroke-width="0.5"/><text x="34" y="82.75" fill="#7A7A7A" font-size="8" text-anchor="end">80</text><line x1="38" y1="54.0" x2="322" y2="54.0" stroke="#E5E5E5" stroke-width="0.5"/><text x="34" y="57.0" fill="#7A7A7A" font-size="8" text-anchor="end">106</text><path d="M 38 157.0 L 38.0 157.0 L 38.8 157.0 L 39.5 157.0 L 40.3 157.0 L 41.1 157.0 L 41.9 157.0 L 42.6 157.0 L 43.4 157.0 L 44.2 157.0 L 44.9 157.0 L 45.7 157.0 L 46.5 157.0 L 47.3 157.0 L 48.0 157.0 L 48.8 157.0 L 49.6 157.0 L 50.3 157.0 L 51.1 157.0 L 51.9 157.0 L 52.7 157.0 L 53.4 157.0 L 54.2 157.0 L 55.0 157.0 L 55.8 157.0 L 56.5 157.0 L 57.3 157.0 L 58.1 157.0 L 58.8 157.0 L 59.6 157.0 L 60.4 157.0 L 61.2 157.0 L 61.9 157.0 L 62.7 157.0 L 63.5 157.0 L 64.2 157.0 L 65.0 157.0 L 65.8 157.0 L 66.6 157.0 L 67.3 157.0 L 68.1 157.0 L 68.9 157.0 L 69.6 157.0 L 70.4 157.0 L 71.2 157.0 L 72.0 157.0 L 72.7 157.0 L 73.5 157.0 L 74.3 157.0 L 75.0 157.0 L 75.8 157.0 L 76.6 157.0 L 77.4 157.0 L 78.1 157.0 L 78.9 157.0 L 79.7 157.0 L 80.4 157.0 L 81.2 157.0 L 82.0 157.0 L 82.8 157.0 L 83.5 157.0 L 84.3 157.0 L 85.1 157.0 L 85.8 157.0 L 86.6 157.0 L 87.4 157.0 L 88.2 157.0 L 88.9 157.0 L 89.7 157.0 L 90.5 157.0 L 91.2 157.0 L 92.0 157.0 L 92.8 157.0 L 93.6 157.0 L 94.3 157.0 L 95.1 157.0 L 95.9 157.0 L 96.7 157.0 L 97.4 157.0 L 98.2 157.0 L 99.0 157.0 L 99.7 157.0 L 100.5 157.0 L 101.3 157.0 L 102.1 157.0 L 102.8 157.0 L 103.6 157.0 L 104.4 157.0 L 105.1 157.0 L 105.9 157.0 L 106.7 157.0 L 107.5 157.0 L 108.2 157.0 L 109.0 157.0 L 109.8 157.0 L 110.5 157.0 L 111.3 157.0 L 112.1 157.0 L 112.9 157.0 L 113.6 157.0 L 114.4 157.0 L 115.2 157.0 L 115.9 157.0 L 116.7 157.0 L 117.5 157.0 L 118.3 157.0 L 119.0 157.0 L 119.8 157.0 L 120.6 157.0 L 121.3 157.0 L 122.1 157.0 L 122.9 157.0 L 123.7 157.0 L 124.4 157.0 L 125.2 157.0 L 126.0 157.0 L 126.8 157.0 L 127.5 157.0 L 128.3 157.0 L 129.1 157.0 L 129.8 157.0 L 130.6 157.0 L 131.4 157.0 L 132.2 157.0 L 132.9 157.0 L 133.7 157.0 L 134.5 157.0 L 135.2 157.0 L 136.0 157.0 L 136.8 157.0 L 137.6 157.0 L 138.3 157.0 L 139.1 157.0 L 139.9 157.0 L 140.6 157.0 L 141.4 157.0 L 142.2 157.0 L 143.0 157.0 L 143.7 157.0 L 144.5 157.0 L 145.3 157.0 L 146.0 157.0 L 146.8 157.0 L 147.6 157.0 L 148.4 157.0 L 149.1 157.0 L 149.9 157.0 L 150.7 157.0 L 151.4 157.0 L 152.2 157.0 L 153.0 157.0 L 153.8 157.0 L 154.5 157.0 L 155.3 157.0 L 156.1 157.0 L 156.8 157.0 L 157.6 157.0 L 158.4 157.0 L 159.2 157.0 L 159.9 157.0 L 160.7 157.0 L 161.5 157.0 L 162.2 157.0 L 163.0 157.0 L 163.8 157.0 L 164.6 157.0 L 165.3 157.0 L 166.1 157.0 L 166.9 157.0 L 167.7 157.0 L 168.4 157.0 L 169.2 157.0 L 170.0 157.0 L 170.7 157.0 L 171.5 157.0 L 172.3 157.0 L 173.1 157.0 L 173.8 157.0 L 174.6 157.0 L 175.4 157.0 L 176.1 157.0 L 176.9 157.0 L 177.7 157.0 L 178.5 157.0 L 179.2 157.0 L 180.0 157.0 L 180.8 157.0 L 181.5 157.0 L 182.3 157.0 L 183.1 157.0 L 183.9 157.0 L 184.6 157.0 L 185.4 157.0 L 186.2 157.0 L 186.9 157.0 L 187.7 157.0 L 188.5 157.0 L 189.3 157.0 L 190.0 157.0 L 190.8 157.0 L 191.6 157.0 L 192.3 157.0 L 193.1 157.0 L 193.9 157.0 L 194.7 157.0 L 195.4 157.0 L 196.2 157.0 L 197.0 157.0 L 197.8 157.0 L 198.5 157.0 L 199.3 157.0 L 200.1 157.0 L 200.8 157.0 L 201.6 157.0 L 202.4 157.0 L 203.2 157.0 L 203.9 157.0 L 204.7 157.0 L 205.5 157.0 L 206.2 157.0 L 207.0 157.0 L 207.8 157.0 L 208.6 157.0 L 209.3 157.0 L 210.1 157.0 L 210.9 157.0 L 211.6 157.0 L 212.4 157.0 L 213.2 157.0 L 214.0 157.0 L 214.7 157.0 L 215.5 157.0 L 216.3 157.0 L 217.0 157.0 L 217.8 157.0 L 218.6 157.0 L 219.4 157.0 L 220.1 157.0 L 220.9 157.0 L 221.7 157.0 L 222.4 157.0 L 223.2 157.0 L 224.0 157.0 L 224.8 157.0 L 225.5 157.0 L 226.3 157.0 L 227.1 157.0 L 227.8 157.0 L 228.6 157.0 L 229.4 157.0 L 230.2 157.0 L 230.9 157.0 L 231.7 157.0 L 232.5 157.0 L 233.2 157.0 L 234.0 157.0 L 234.8 157.0 L 235.6 157.0 L 236.3 157.0 L 237.1 157.0 L 237.9 157.0 L 238.7 157.0 L 239.4 157.0 L 240.2 157.0 L 241.0 157.0 L 241.7 157.0 L 242.5 157.0 L 243.3 157.0 L 244.1 157.0 L 244.8 157.0 L 245.6 157.0 L 246.4 157.0 L 247.1 157.0 L 247.9 157.0 L 248.7 157.0 L 249.5 157.0 L 250.2 157.0 L 251.0 157.0 L 251.8 157.0 L 252.5 157.0 L 253.3 157.0 L 254.1 157.0 L 254.9 157.0 L 255.6 157.0 L 256.4 157.0 L 257.2 157.0 L 257.9 157.0 L 258.7 157.0 L 259.5 157.0 L 260.3 157.0 L 261.0 157.0 L 261.8 157.0 L 262.6 157.0 L 263.3 157.0 L 264.1 157.0 L 264.9 157.0 L 265.7 157.0 L 266.4 157.0 L 267.2 157.0 L 268.0 157.0 L 268.8 157.0 L 269.5 157.0 L 270.3 157.0 L 271.1 157.0 L 271.8 157.0 L 272.6 157.0 L 273.4 157.0 L 274.2 157.0 L 274.9 157.0 L 275.7 157.0 L 276.5 157.0 L 277.2 157.0 L 278.0 157.0 L 278.8 157.0 L 279.6 157.0 L 280.3 157.0 L 281.1 157.0 L 281.9 157.0 L 282.6 157.0 L 283.4 157.0 L 284.2 157.0 L 285.0 157.0 L 285.7 157.0 L 286.5 157.0 L 287.3 157.0 L 288.0 157.0 L 288.8 157.0 L 289.6 157.0 L 290.4 157.0 L 291.1 157.0 L 291.9 157.0 L 292.7 157.0 L 293.4 157.0 L 294.2 157.0 L 295.0 157.0 L 295.8 157.0 L 296.5 157.0 L 297.3 130.8 L 298.1 105.5 L 298.8 102.6 L 299.6 102.6 L 300.4 102.6 L 301.2 102.6 L 301.9 102.6 L 302.7 102.6 L 303.5 102.6 L 304.2 102.6 L 305.0 102.6 L 305.8 102.6 L 306.6 102.6 L 307.3 102.6 L 308.1 102.6 L 308.9 102.6 L 309.7 102.6 L 310.4 102.6 L 311.2 102.6 L 312.0 102.6 L 312.7 54.0 L 313.5 54.0 L 314.3 54.0 L 315.1 54.0 L 315.8 54.0 L 316.6 54.0 L 317.4 54.0 L 318.1 54.0 L 318.9 54.0 L 319.7 54.0 L 320.5 54.0 L 321.2 54.0 L 322.0 54.0 L 322.0 157.0 Z" fill="#3B6EA8" fill-opacity="0.18" stroke="none"/><path d="M 38.0 157.0 L 38.8 157.0 L 39.5 157.0 L 40.3 157.0 L 41.1 157.0 L 41.9 157.0 L 42.6 157.0 L 43.4 157.0 L 44.2 157.0 L 44.9 157.0 L 45.7 157.0 L 46.5 157.0 L 47.3 157.0 L 48.0 157.0 L 48.8 157.0 L 49.6 157.0 L 50.3 157.0 L 51.1 157.0 L 51.9 157.0 L 52.7 157.0 L 53.4 157.0 L 54.2 157.0 L 55.0 157.0 L 55.8 157.0 L 56.5 157.0 L 57.3 157.0 L 58.1 157.0 L 58.8 157.0 L 59.6 157.0 L 60.4 157.0 L 61.2 157.0 L 61.9 157.0 L 62.7 157.0 L 63.5 157.0 L 64.2 157.0 L 65.0 157.0 L 65.8 157.0 L 66.6 157.0 L 67.3 157.0 L 68.1 157.0 L 68.9 157.0 L 69.6 157.0 L 70.4 157.0 L 71.2 157.0 L 72.0 157.0 L 72.7 157.0 L 73.5 157.0 L 74.3 157.0 L 75.0 157.0 L 75.8 157.0 L 76.6 157.0 L 77.4 157.0 L 78.1 157.0 L 78.9 157.0 L 79.7 157.0 L 80.4 157.0 L 81.2 157.0 L 82.0 157.0 L 82.8 157.0 L 83.5 157.0 L 84.3 157.0 L 85.1 157.0 L 85.8 157.0 L 86.6 157.0 L 87.4 157.0 L 88.2 157.0 L 88.9 157.0 L 89.7 157.0 L 90.5 157.0 L 91.2 157.0 L 92.0 157.0 L 92.8 157.0 L 93.6 157.0 L 94.3 157.0 L 95.1 157.0 L 95.9 157.0 L 96.7 157.0 L 97.4 157.0 L 98.2 157.0 L 99.0 157.0 L 99.7 157.0 L 100.5 157.0 L 101.3 157.0 L 102.1 157.0 L 102.8 157.0 L 103.6 157.0 L 104.4 157.0 L 105.1 157.0 L 105.9 157.0 L 106.7 157.0 L 107.5 157.0 L 108.2 157.0 L 109.0 157.0 L 109.8 157.0 L 110.5 157.0 L 111.3 157.0 L 112.1 157.0 L 112.9 157.0 L 113.6 157.0 L 114.4 157.0 L 115.2 157.0 L 115.9 157.0 L 116.7 157.0 L 117.5 157.0 L 118.3 157.0 L 119.0 157.0 L 119.8 157.0 L 120.6 157.0 L 121.3 157.0 L 122.1 157.0 L 122.9 157.0 L 123.7 157.0 L 124.4 157.0 L 125.2 157.0 L 126.0 157.0 L 126.8 157.0 L 127.5 157.0 L 128.3 157.0 L 129.1 157.0 L 129.8 157.0 L 130.6 157.0 L 131.4 157.0 L 132.2 157.0 L 132.9 157.0 L 133.7 157.0 L 134.5 157.0 L 135.2 157.0 L 136.0 157.0 L 136.8 157.0 L 137.6 157.0 L 138.3 157.0 L 139.1 157.0 L 139.9 157.0 L 140.6 157.0 L 141.4 157.0 L 142.2 157.0 L 143.0 157.0 L 143.7 157.0 L 144.5 157.0 L 145.3 157.0 L 146.0 157.0 L 146.8 157.0 L 147.6 157.0 L 148.4 157.0 L 149.1 157.0 L 149.9 157.0 L 150.7 157.0 L 151.4 157.0 L 152.2 157.0 L 153.0 157.0 L 153.8 157.0 L 154.5 157.0 L 155.3 157.0 L 156.1 157.0 L 156.8 157.0 L 157.6 157.0 L 158.4 157.0 L 159.2 157.0 L 159.9 157.0 L 160.7 157.0 L 161.5 157.0 L 162.2 157.0 L 163.0 157.0 L 163.8 157.0 L 164.6 157.0 L 165.3 157.0 L 166.1 157.0 L 166.9 157.0 L 167.7 157.0 L 168.4 157.0 L 169.2 157.0 L 170.0 157.0 L 170.7 157.0 L 171.5 157.0 L 172.3 157.0 L 173.1 157.0 L 173.8 157.0 L 174.6 157.0 L 175.4 157.0 L 176.1 157.0 L 176.9 157.0 L 177.7 157.0 L 178.5 157.0 L 179.2 157.0 L 180.0 157.0 L 180.8 157.0 L 181.5 157.0 L 182.3 157.0 L 183.1 157.0 L 183.9 157.0 L 184.6 157.0 L 185.4 157.0 L 186.2 157.0 L 186.9 157.0 L 187.7 157.0 L 188.5 157.0 L 189.3 157.0 L 190.0 157.0 L 190.8 157.0 L 191.6 157.0 L 192.3 157.0 L 193.1 157.0 L 193.9 157.0 L 194.7 157.0 L 195.4 157.0 L 196.2 157.0 L 197.0 157.0 L 197.8 157.0 L 198.5 157.0 L 199.3 157.0 L 200.1 157.0 L 200.8 157.0 L 201.6 157.0 L 202.4 157.0 L 203.2 157.0 L 203.9 157.0 L 204.7 157.0 L 205.5 157.0 L 206.2 157.0 L 207.0 157.0 L 207.8 157.0 L 208.6 157.0 L 209.3 157.0 L 210.1 157.0 L 210.9 157.0 L 211.6 157.0 L 212.4 157.0 L 213.2 157.0 L 214.0 157.0 L 214.7 157.0 L 215.5 157.0 L 216.3 157.0 L 217.0 157.0 L 217.8 157.0 L 218.6 157.0 L 219.4 157.0 L 220.1 157.0 L 220.9 157.0 L 221.7 157.0 L 222.4 157.0 L 223.2 157.0 L 224.0 157.0 L 224.8 157.0 L 225.5 157.0 L 226.3 157.0 L 227.1 157.0 L 227.8 157.0 L 228.6 157.0 L 229.4 157.0 L 230.2 157.0 L 230.9 157.0 L 231.7 157.0 L 232.5 157.0 L 233.2 157.0 L 234.0 157.0 L 234.8 157.0 L 235.6 157.0 L 236.3 157.0 L 237.1 157.0 L 237.9 157.0 L 238.7 157.0 L 239.4 157.0 L 240.2 157.0 L 241.0 157.0 L 241.7 157.0 L 242.5 157.0 L 243.3 157.0 L 244.1 157.0 L 244.8 157.0 L 245.6 157.0 L 246.4 157.0 L 247.1 157.0 L 247.9 157.0 L 248.7 157.0 L 249.5 157.0 L 250.2 157.0 L 251.0 157.0 L 251.8 157.0 L 252.5 157.0 L 253.3 157.0 L 254.1 157.0 L 254.9 157.0 L 255.6 157.0 L 256.4 157.0 L 257.2 157.0 L 257.9 157.0 L 258.7 157.0 L 259.5 157.0 L 260.3 157.0 L 261.0 157.0 L 261.8 157.0 L 262.6 157.0 L 263.3 157.0 L 264.1 157.0 L 264.9 157.0 L 265.7 157.0 L 266.4 157.0 L 267.2 157.0 L 268.0 157.0 L 268.8 157.0 L 269.5 157.0 L 270.3 157.0 L 271.1 157.0 L 271.8 157.0 L 272.6 157.0 L 273.4 157.0 L 274.2 157.0 L 274.9 157.0 L 275.7 157.0 L 276.5 157.0 L 277.2 157.0 L 278.0 157.0 L 278.8 157.0 L 279.6 157.0 L 280.3 157.0 L 281.1 157.0 L 281.9 157.0 L 282.6 157.0 L 283.4 157.0 L 284.2 157.0 L 285.0 157.0 L 285.7 157.0 L 286.5 157.0 L 287.3 157.0 L 288.0 157.0 L 288.8 157.0 L 289.6 157.0 L 290.4 157.0 L 291.1 157.0 L 291.9 157.0 L 292.7 157.0 L 293.4 157.0 L 294.2 157.0 L 295.0 157.0 L 295.8 157.0 L 296.5 157.0 L 297.3 130.8 L 298.1 105.5 L 298.8 102.6 L 299.6 102.6 L 300.4 102.6 L 301.2 102.6 L 301.9 102.6 L 302.7 102.6 L 303.5 102.6 L 304.2 102.6 L 305.0 102.6 L 305.8 102.6 L 306.6 102.6 L 307.3 102.6 L 308.1 102.6 L 308.9 102.6 L 309.7 102.6 L 310.4 102.6 L 311.2 102.6 L 312.0 102.6 L 312.7 54.0 L 313.5 54.0 L 314.3 54.0 L 315.1 54.0 L 315.8 54.0 L 316.6 54.0 L 317.4 54.0 L 318.1 54.0 L 318.9 54.0 L 319.7 54.0 L 320.5 54.0 L 321.2 54.0 L 322.0 54.0" fill="none" stroke="#3B6EA8" stroke-width="2" stroke-linejoin="round" stroke-linecap="round"/><circle cx="322.0" cy="54.0" r="3.5" fill="#C04040" stroke="#FFFFFF" stroke-width="1"/><text x="314.0" y="49.0" fill="#C04040" font-size="11" font-weight="700" text-anchor="end">106</text><text x="38.0" y="169" fill="#7A7A7A" font-size="9" text-anchor="start">Jun 2025</text><text x="180.0" y="169" fill="#7A7A7A" font-size="9" text-anchor="middle">Dec 2025</text><text x="322.0" y="169" fill="#7A7A7A" font-size="9" text-anchor="end">Jun 2026</text><text x="170.0" y="187" fill="#7A7A7A" font-size="9" text-anchor="middle">running total · ends at 106 on 2026-06-04</text></svg>