<svg xmlns="http://www.w3.org/2000/svg" xmlns:xlink="http://www.w3.org/1999/xlink" width="340" height="195" viewBox="0 0 340 195" font-family="-apple-system,BlinkMacSystemFont,Segoe UI,Helvetica,Arial,sans-serif"><rect x="0.5" y="0.5" width="339" height="194" rx="8" fill="#FFFFFF" stroke="#E5E5E5" stroke-width="1"/><text x="170.0" y="26" fill="#3B6EA8" font-size="13" font-weight="700" text-anchor="middle">Cumulative contributions</text><line x1="16" y1="38" x2="324" y2="38" stroke="#CCCCCC" stroke-width="0.6"/><line x1="38" y1="157.0" x2="322" y2="157.0" stroke="#E5E5E5" stroke-width="0.5"/><text x="34" y="160.0" fill="#7A7A7A" font-size="8" text-anchor="end">0</text><line x1="38" y1="131.25" x2="322" y2="131.25" stroke="#E5E5E5" stroke-width="0.5"/><text x="34" y="134.25" fill="#7A7A7A" font-size="8" text-anchor="end">26</text><line x1="38" y1="105.5" x2="322" y2="105.5" stroke="#E5E5E5" stroke-width="0.5"/><text x="34" y="108.5" fill="#7A7A7A" font-size="8" text-anchor="end">53</text><line x1="38" y1="79.75" x2="322" y2="79.75" stroke="#E5E5E5" stroke-width="0.5"/><text x="34" y="82.75" fill="#7A7A7A" font-size="8" text-anchor="end">80</text><line x1="38" y1="54.0" x2="322" y2="54.0" stroke="#E5E5E5" stroke-width="0.5"/><text x="34" y="57.0" fill="#7A7A7A" font-size="8" text-anchor="end">106</text><path d="M 38 157.0 L 38.0 157.0 L 38.8 157.0 L 39.6 157.0 L 40.3 157.0 L 41.1 157.0 L 41.9 157.0 L 42.7 157.0 L 43.4 157.0 L 44.2 157.0 L 45.0 157.0 L 45.8 157.0 L 46.5 157.0 L 47.3 157.0 L 48.1 157.0 L 48.9 157.0 L 49.6 157.0 L 50.4 157.0 L 51.2 157.0 L 52.0 157.0 L 52.7 157.0 L 53.5 157.0 L 54.3 157.0 L 55.1 157.0 L 55.8 157.0 L 56.6 157.0 L 57.4 157.0 L 58.2 157.0 L 59.0 157.0 L 59.7 157.0 L 60.5 157.0 L 61.3 157.0 L 62.1 157.0 L 62.8 157.0 L 63.6 157.0 L 64.4 157.0 L 65.2 157.0 L 65.9 157.0 L 66.7 157.0 L 67.5 157.0 L 68.3 157.0 L 69.0 157.0 L 69.8 157.0 L 70.6 157.0 L 71.4 157.0 L 72.1 157.0 L 72.9 157.0 L 73.7 157.0 L 74.5 157.0 L 75.2 157.0 L 76.0 157.0 L 76.8 157.0 L 77.6 157.0 L 78.3 157.0 L 79.1 157.0 L 79.9 157.0 L 80.7 157.0 L 81.5 157.0 L 82.2 157.0 L 83.0 157.0 L 83.8 157.0 L 84.6 157.0 L 85.3 157.0 L 86.1 157.0 L 86.9 157.0 L 87.7 157.0 L 88.4 157.0 L 89.2 157.0 L 90.0 157.0 L 90.8 157.0 L 91.5 157.0 L 92.3 157.0 L 93.1 157.0 L 93.9 157.0 L 94.6 157.0 L 95.4 157.0 L 96.2 157.0 L 97.0 157.0 L 97.7 157.0 L 98.5 157.0 L 99.3 157.0 L 100.1 157.0 L 100.9 157.0 L 101.6 157.0 L 102.4 157.0 L 103.2 157.0 L 104.0 157.0 L 104.7 157.0 L 105.5 157.0 L 106.3 157.0 L 107.1 157.0 L 107.8 157.0 L 108.6 157.0 L 109.4 157.0 L 110.2 157.0 L 110.9 157.0 L 111.7 157.0 L 112.5 157.0 L 113.3 157.0 L 114.0 157.0 L 114.8 157.0 L 115.6 157.0 L 116.4 157.0 L 117.1 157.0 L 117.9 157.0 L 118.7 157.0 L 119.5 157.0 L 120.3 157.0 L 121.0 157.0 L 121.8 157.0 L 122.6 157.0 L 123.4 157.0 L 124.1 157.0 L 124.9 157.0 L 125.7 157.0 L 126.5 157.0 L 127.2 157.0 L 128.0 157.0 L 128.8 157.0 L 129.6 157.0 L 130.3 157.0 L 131.1 157.0 L 131.9 157.0 L 132.7 157.0 L 133.4 157.0 L 134.2 157.0 L 135.0 157.0 L 135.8 157.0 L 136.5 157.0 L 137.3 157.0 L 138.1 157.0 L 138.9 157.0 L 139.7 157.0 L 140.4 157.0 L 141.2 157.0 L 142.0 157.0 L 142.8 157.0 L 143.5 157.0 L 144.3 157.0 L 145.1 157.0 L 145.9 157.0 L 146.6 157.0 L 147.4 157.0 L 148.2 157.0 L 149.0 157.0 L 149.7 157.0 L 150.5 157.0 L 151.3 157.0 L 152.1 157.0 L 152.8 157.0 L 153.6 157.0 L 154.4 157.0 L 155.2 157.0 L 155.9 157.0 L 156.7 157.0 L 157.5 157.0 L 158.3 157.0 L 159.0 157.0 L 159.8 157.0 L 160.6 157.0 L 161.4 157.0 L 162.2 157.0 L 162.9 157.0 L 163.7 157.0 L 164.5 157.0 L 165.3 157.0 L 166.0 157.0 L 166.8 157.0 L 167.6 157.0 L 168.4 157.0 L 169.1 157.0 L 169.9 157.0 L 170.7 157.0 L 171.5 157.0 L 172.2 157.0 L 173.0 157.0 L 173.8 157.0 L 174.6 157.0 L 175.3 157.0 L 176.1 157.0 L 176.9 157.0 L 177.7 157.0 L 178.4 157.0 L 179.2 157.0 L 180.0 157.0 L 180.8 157.0 L 181.6 157.0 L 182.3 157.0 L 183.1 157.0 L 183.9 157.0 L 184.7 157.0 L 185.4 157.0 L 186.2 157.0 L 187.0 157.0 L 187.8 157.0 L 188.5 157.0 L 189.3 157.0 L 190.1 157.0 L 190.9 157.0 L 191.6 157.0 L 192.4 157.0 L 193.2 157.0 L 194.0 157.0 L 194.7 157.0 L 195.5 157.0 L 196.3 157.0 L 197.1 157.0 L 197.8 157.0 L 198.6 157.0 L 199.4 157.0 L 200.2 157.0 L 201.0 157.0 L 201.7 157.0 L 202.5 157.0 L 203.3 157.0 L 204.1 157.0 L 204.8 157.0 L 205.6 157.0 L 206.4 157.0 L 207.2 157.0 L 207.9 157.0 L 208.7 157.0 L 209.5 157.0 L 210.3 157.0 L 211.0 157.0 L 211.8 157.0 L 212.6 157.0 L 213.4 157.0 L 214.1 157.0 L 214.9 157.0 L 215.7 157.0 L 216.5 157.0 L 217.2 157.0 L 218.0 157.0 L 218.8 157.0 L 219.6 157.0 L 220.3 157.0 L 221.1 157.0 L 221.9 157.0 L 222.7 157.0 L 223.5 157.0 L 224.2 157.0 L 225.0 157.0 L 225.8 157.0 L 226.6 157.0 L 227.3 157.0 L 228.1 157.0 L 228.9 157.0 L 229.7 157.0 L 230.4 157.0 L 231.2 157.0 L 232.0 157.0 L 232.8 157.0 L 233.5 157.0 L 234.3 157.0 L 235.1 157.0 L 235.9 157.0 L 236.6 157.0 L 237.4 157.0 L 238.2 157.0 L 239.0 157.0 L 239.7 157.0 L 240.5 157.0 L 241.3 157.0 L 242.1 157.0 L 242.9 157.0 L 243.6 157.0 L 244.4 157.0 L 245.2 157.0 L 246.0 157.0 L 246.7 157.0 L 247.5 157.0 L 248.3 157.0 L 249.1 157.0 L 249.8 157.0 L 250.6 157.0 L 251.4 157.0 L 252.2 157.0 L 252.9 157.0 L 253.7 157.0 L 254.5 157.0 L 255.3 157.0 L 256.0 157.0 L 256.8 157.0 L 257.6 157.0 L 258.4 157.0 L 259.1 157.0 L 259.9 157.0 L 260.7 157.0 L 261.5 157.0 L 262.3 157.0 L 263.0 157.0 L 263.8 157.0 L 264.6 157.0 L 265.4 157.0 L 266.1 157.0 L 266.9 157.0 L 267.7 157.0 L 268.5 157.0 L 269.2 157.0 L 270.0 157.0 L 270.8 157.0 L 271.6 157.0 L 272.3 157.0 L 273.1 157.0 L 273.9 157.0 L 274.7 157.0 L 275.4 157.0 L 276.2 157.0 L 277.0 157.0 L 277.8 157.0 L 278.5 157.0 L 279.3 157.0 L 280.1 157.0 L 280.9 157.0 L 281.7 157.0 L 282.4 157.0 L 283.2 157.0 L 284.0 157.0 L 284.8 157.0 L 285.5 157.0 L 286.3 157.0 L 287.1 157.0 L 287.9 157.0 L 288.6 157.0 L 289.4 157.0 L 290.2 157.0 L 291.0 157.0 L 291.7 157.0 L 292.5 157.0 L 293.3 157.0 L 294.1 157.0 L 294.8 157.0 L 295.6 157.0 L 296.4 157.0 L 297.2 157.0 L 297.9 157.0 L 298.7 157.0 L 299.5 157.0 L 300.3 157.0 L 301.0 157.0 L 301.8 157.0 L 302.6 157.0 L 303.4 157.0 L 304.2 130.8 L 304.9 105.5 L 305.7 102.6 L 306.5 102.6 L 307.3 102.6 L 308.0 102.6 L 308.8 102.6 L 309.6 102.6 L 310.4 102.6 L 311.1 102.6 L 311.9 102.6 L 312.7 102.6 L 313.5 102.6 L 314.2 102.6 L 315.0 102.6 L 315.8 102.6 L 316.6 102.6 L 317.3 102.6 L 318.1 102.6 L 318.9 102.6 L 319.7 54.0 L 320.4 54.0 L 321.2 54.0 L 322.0 54.0 L 322.0 157.0 Z" fill="#3B6EA8" fill-opacity="0.18" stroke="none"/><path d="M 38.0 157.0 L 38.8 157.0 L 39.6 157.0 L 40.3 157.0 L 41.1 157.0 L 41.9 157.0 L 42.7 157.0 L 43.4 157.0 L 44.2 157.0 L 45.0 157.0 L 45.8 157.0 L 46.5 157.0 L 47.3 157.0 L 48.1 157.0 L 48.9 157.0 L 49.6 157.0 L 50.4 157.0 L 51.2 157.0 L 52.0 157.0 L 52.7 157.0 L 53.5 157.0 L 54.3 157.0 L 55.1 157.0 L 55.8 157.0 L 56.6 157.0 L 57.4 157.0 L 58.2 157.0 L 59.0 157.0 L 59.7 157.0 L 60.5 157.0 L 61.3 157.0 L 62.1 157.0 L 62.8 157.0 L 63.6 157.0 L 64.4 157.0 L 65.2 157.0 L 65.9 157.0 L 66.7 157.0 L 67.5 157.0 L 68.3 157.0 L 69.0 157.0 L 69.8 157.0 L 70.6 157.0 L 71.4 157.0 L 72.1 157.0 L 72.9 157.0 L 73.7 157.0 L 74.5 157.0 L 75.2 157.0 L 76.0 157.0 L 76.8 157.0 L 77.6 157.0 L 78.3 157.0 L 79.1 157.0 L 79.9 157.0 L 80.7 157.0 L 81.5 157.0 L 82.2 157.0 L 83.0 157.0 L 83.8 157.0 L 84.6 157.0 L 85.3 157.0 L 86.1 157.0 L 86.9 157.0 L 87.7 157.0 L 88.4 157.0 L 89.2 157.0 L 90.0 157.0 L 90.8 157.0 L 91.5 157.0 L 92.3 157.0 L 93.1 157.0 L 93.9 157.0 L 94.6 157.0 L 95.4 157.0 L 96.2 157.0 L 97.0 157.0 L 97.7 157.0 L 98.5 157.0 L 99.3 157.0 L 100.1 157.0 L 100.9 157.0 L 101.6 157.0 L 102.4 157.0 L 103.2 157.0 L 104.0 157.0 L 104.7 157.0 L 105.5 157.0 L 106.3 157.0 L 107.1 157.0 L 107.8 157.0 L 108.6 157.0 L 109.4 157.0 L 110.2 157.0 L 110.9 157.0 L 111.7 157.0 L 112.5 157.0 L 113.3 157.0 L 114.0 157.0 L 114.8 157.0 L 115.6 157.0 L 116.4 157.0 L 117.1 157.0 L 117.9 157.0 L 118.7 157.0 L 119.5 157.0 L 120.3 157.0 L 121.0 157.0 L 121.8 157.0 L 122.6 157.0 L 123.4 157.0 L 124.1 157.0 L 124.9 157.0 L 125.7 157.0 L 126.5 157.0 L 127.2 157.0 L 128.0 157.0 L 128.8 157.0 L 129.6 157.0 L 130.3 157.0 L 131.1 157.0 L 131.9 157.0 L 132.7 157.0 L 133.4 157.0 L 134.2 157.0 L 135.0 157.0 L 135.8 157.0 L 136.5 157.0 L 137.3 157.0 L 138.1 157.0 L 138.9 157.0 L 139.7 157.0 L 140.4 157.0 L 141.2 157.0 L 142.0 157.0 L 142.8 157.0 L 143.5 157.0 L 144.3 157.0 L 145.1 157.0 L 145.9 157.0 L 146.6 157.0 L 147.4 157.0 L 148.2 157.0 L 149.0 157.0 L 149.7 157.0 L 150.5 157.0 L 151.3 157.0 L 152.1 157.0 L 152.8 157.0 L 153.6 157.0 L 154.4 157.0 L 155.2 157.0 L 155.9 157.0 L 156.7 157.0 L 157.5 157.0 L 158.3 157.0 L 159.0 157.0 L 159.8 157.0 L 160.6 157.0 L 161.4 157.0 L 162.2 157.0 L 162.9 157.0 L 163.7 157.0 L 164.5 157.0 L 165.3 157.0 L 166.0 157.0 L 166.8 157.0 L 167.6 157.0 L 168.4 157.0 L 169.1 157.0 L 169.9 157.0 L 170.7 157.0 L 171.5 157.0 L 172.2 157.0 L 173.0 157.0 L 173.8 157.0 L 174.6 157.0 L 175.3 157.0 L 176.1 157.0 L 176.9 157.0 L 177.7 157.0 L 178.4 157.0 L 179.2 157.0 L 180.0 157.0 L 180.8 157.0 L 181.6 157.0 L 182.3 157.0 L 183.1 157.0 L 183.9 157.0 L 184.7 157.0 L 185.4 157.0 L 186.2 157.0 L 187.0 157.0 L 187.8 157.0 L 188.5 157.0 L 189.3 157.0 L 190.1 157.0 L 190.9 157.0 L 191.6 157.0 L 192.4 157.0 L 193.2 157.0 L 194.0 157.0 L 194.7 157.0 L 195.5 157.0 L 196.3 157.0 L 197.1 157.0 L 197.8 157.0 L 198.6 157.0 L 199.4 157.0 L 200.2 157.0 L 201.0 157.0 L 201.7 157.0 L 202.5 157.0 L 203.3 157.0 L 204.1 157.0 L 204.8 157.0 L 205.6 157.0 L 206.4 157.0 L 207.2 157.0 L 207.9 157.0 L 208.7 157.0 L 209.5 157.0 L 210.3 157.0 L 211.0 157.0 L 211.8 157.0 L 212.6 157.0 L 213.4 157.0 L 214.1 157.0 L 214.9 157.0 L 215.7 157.0 L 216.5 157.0 L 217.2 157.0 L 218.0 157.0 L 218.8 157.0 L 219.6 157.0 L 220.3 157.0 L 221.1 157.0 L 221.9 157.0 L 222.7 157.0 L 223.5 157.0 L 224.2 157.0 L 225.0 157.0 L 225.8 157.0 L 226.6 157.0 L 227.3 157.0 L 228.1 157.0 L 228.9 157.0 L 229.7 157.0 L 230.4 157.0 L 231.2 157.0 L 232.0 157.0 L 232.8 157.0 L 233.5 157.0 L 234.3 157.0 L 235.1 157.0 L 235.9 157.0 L 236.6 157.0 L 237.4 157.0 L 238.2 157.0 L 239.0 157.0 L 239.7 157.0 L 240.5 157.0 L 241.3 157.0 L 242.1 157.0 L 242.9 157.0 L 243.6 157.0 L 244.4 157.0 L 245.2 157.0 L 246.0 157.0 L 246.7 157.0 L 247.5 157.0 L 248.3 157.0 L 249.1 157.0 L 249.8 157.0 L 250.6 157.0 L 251.4 157.0 L 252.2 157.0 L 252.9 157.0 L 253.7 157.0 L 254.5 157.0 L 255.3 157.0 L 256.0 157.0 L 256.8 157.0 L 257.6 157.0 L 258.4 157.0 L 259.1 157.0 L 259.9 157.0 L 260.7 157.0 L 261.5 157.0 L 262.3 157.0 L 263.0 157.0 L 263.8 157.0 L 264.6 157.0 L 265.4 157.0 L 266.1 157.0 L 266.9 157.0 L 267.7 157.0 L 268.5 157.0 L 269.2 157.0 L 270.0 157.0 L 270.8 157.0 L 271.6 157.0 L 272.3 157.0 L 273.1 157.0 L 273.9 157.0 L 274.7 157.0 L 275.4 157.0 L 276.2 157.0 L 277.0 157.0 L 277.8 157.0 L 278.5 157.0 L 279.3 157.0 L 280.1 157.0 L 280.9 157.0 L 281.7 157.0 L 282.4 157.0 L 283.2 157.0 L 284.0 157.0 L 284.8 157.0 L 285.5 157.0 L 286.3 157.0 L 287.1 157.0 L 287.9 157.0 L 288.6 157.0 L 289.4 157.0 L 290.2 157.0 L 291.0 157.0 L 291.7 157.0 L 292.5 157.0 L 293.3 157.0 L 294.1 157.0 L 294.8 157.0 L 295.6 157.0 L 296.4 157.0 L 297.2 157.0 L 297.9 157.0 L 298.7 157.0 L 299.5 157.0 L 300.3 157.0 L 301.0 157.0 L 301.8 157.0 L 302.6 157.0 L 303.4 157.0 L 304.2 130.8 L 304.9 105.5 L 305.7 102.6 L 306.5 102.6 L 307.3 102.6 L 308.0 102.6 L 308.8 102.6 L 309.6 102.6 L 310.4 102.6 L 311.1 102.6 L 311.9 102.6 L 312.7 102.6 L 313.5 102.6 L 314.2 102.6 L 315.0 102.6 L 315.8 102.6 L 316.6 102.6 L 317.3 102.6 L 318.1 102.6 L 318.9 102.6 L 319.7 54.0 L 320.4 54.0 L 321.2 54.0 L 322.0 54.0" fill="none" stroke="#3B6EA8" stroke-width="2" stroke-linejoin="round" stroke-linecap="round"/><circle cx="322.0" cy="54.0" r="3.5" fill="#C04040" stroke="#FFFFFF" stroke-width="1"/><text x="314.0" y="49.0" fill="#C04040" font-size="11" font-weight="700" text-anchor="end">106</text><text x="38.0" y="169" fill="#7A7A7A" font-size="9" text-anchor="start">May 2025</text><text x="180.0" y="169" fill="#7A7A7A" font-size="9" text-anchor="middle">Nov 2025</text><text x="322.0" y="169" fill="#7A7A7A" font-size="9" text-anchor="end">May 2026</text><text x="170.0" y="187" fill="#7A7A7A" font-size="9" text-anchor="middle">running total · ends at 106 on 2026-05-26</text></svg>