<svg xmlns="http://www.w3.org/2000/svg" xmlns:xlink="http://www.w3.org/1999/xlink" width="340" height="195" viewBox="0 0 340 195" font-family="-apple-system,BlinkMacSystemFont,Segoe UI,Helvetica,Arial,sans-serif"><rect x="0.5" y="0.5" width="339" height="194" rx="8" fill="#FFFFFF" stroke="#E5E5E5" stroke-width="1"/><text x="170.0" y="26" fill="#3B6EA8" font-size="13" font-weight="700" text-anchor="middle">Cumulative contributions</text><line x1="16" y1="38" x2="324" y2="38" stroke="#CCCCCC" stroke-width="0.6"/><line x1="38" y1="157.0" x2="322" y2="157.0" stroke="#E5E5E5" stroke-width="0.5"/><text x="34" y="160.0" fill="#7A7A7A" font-size="8" text-anchor="end">0</text><line x1="38" y1="131.25" x2="322" y2="131.25" stroke="#E5E5E5" stroke-width="0.5"/><text x="34" y="134.25" fill="#7A7A7A" font-size="8" text-anchor="end">9</text><line x1="38" y1="105.5" x2="322" y2="105.5" stroke="#E5E5E5" stroke-width="0.5"/><text x="34" y="108.5" fill="#7A7A7A" font-size="8" text-anchor="end">18</text><line x1="38" y1="79.75" x2="322" y2="79.75" stroke="#E5E5E5" stroke-width="0.5"/><text x="34" y="82.75" fill="#7A7A7A" font-size="8" text-anchor="end">28</text><line x1="38" y1="54.0" x2="322" y2="54.0" stroke="#E5E5E5" stroke-width="0.5"/><text x="34" y="57.0" fill="#7A7A7A" font-size="8" text-anchor="end">37</text><path d="M 38 157.0 L 38.0 157.0 L 38.8 157.0 L 39.6 157.0 L 40.3 157.0 L 41.1 157.0 L 41.9 157.0 L 42.7 157.0 L 43.4 157.0 L 44.2 157.0 L 45.0 157.0 L 45.8 157.0 L 46.6 157.0 L 47.3 157.0 L 48.1 157.0 L 48.9 157.0 L 49.7 157.0 L 50.4 157.0 L 51.2 157.0 L 52.0 157.0 L 52.8 157.0 L 53.6 157.0 L 54.3 157.0 L 55.1 157.0 L 55.9 157.0 L 56.7 157.0 L 57.5 157.0 L 58.2 157.0 L 59.0 157.0 L 59.8 157.0 L 60.6 157.0 L 61.3 157.0 L 62.1 157.0 L 62.9 157.0 L 63.7 157.0 L 64.5 157.0 L 65.2 157.0 L 66.0 157.0 L 66.8 157.0 L 67.6 157.0 L 68.3 157.0 L 69.1 157.0 L 69.9 157.0 L 70.7 157.0 L 71.5 157.0 L 72.2 157.0 L 73.0 157.0 L 73.8 157.0 L 74.6 157.0 L 75.3 157.0 L 76.1 157.0 L 76.9 157.0 L 77.7 157.0 L 78.5 157.0 L 79.2 157.0 L 80.0 157.0 L 80.8 157.0 L 81.6 157.0 L 82.4 157.0 L 83.1 157.0 L 83.9 157.0 L 84.7 157.0 L 85.5 157.0 L 86.2 157.0 L 87.0 157.0 L 87.8 157.0 L 88.6 157.0 L 89.4 157.0 L 90.1 157.0 L 90.9 157.0 L 91.7 157.0 L 92.5 157.0 L 93.2 157.0 L 94.0 157.0 L 94.8 157.0 L 95.6 157.0 L 96.4 157.0 L 97.1 157.0 L 97.9 157.0 L 98.7 157.0 L 99.5 157.0 L 100.2 157.0 L 101.0 157.0 L 101.8 157.0 L 102.6 157.0 L 103.4 157.0 L 104.1 157.0 L 104.9 157.0 L 105.7 157.0 L 106.5 157.0 L 107.2 157.0 L 108.0 157.0 L 108.8 157.0 L 109.6 157.0 L 110.4 157.0 L 111.1 157.0 L 111.9 157.0 L 112.7 157.0 L 113.5 157.0 L 114.3 157.0 L 115.0 157.0 L 115.8 157.0 L 116.6 157.0 L 117.4 157.0 L 118.1 157.0 L 118.9 157.0 L 119.7 157.0 L 120.5 157.0 L 121.3 157.0 L 122.0 157.0 L 122.8 157.0 L 123.6 157.0 L 124.4 157.0 L 125.1 157.0 L 125.9 157.0 L 126.7 157.0 L 127.5 157.0 L 128.3 157.0 L 129.0 157.0 L 129.8 157.0 L 130.6 157.0 L 131.4 157.0 L 132.1 157.0 L 132.9 157.0 L 133.7 157.0 L 134.5 157.0 L 135.3 157.0 L 136.0 157.0 L 136.8 157.0 L 137.6 157.0 L 138.4 157.0 L 139.2 157.0 L 139.9 157.0 L 140.7 157.0 L 141.5 157.0 L 142.3 157.0 L 143.0 157.0 L 143.8 157.0 L 144.6 157.0 L 145.4 157.0 L 146.2 157.0 L 146.9 157.0 L 147.7 157.0 L 148.5 157.0 L 149.3 157.0 L 150.0 157.0 L 150.8 157.0 L 151.6 157.0 L 152.4 157.0 L 153.2 157.0 L 153.9 157.0 L 154.7 157.0 L 155.5 157.0 L 156.3 157.0 L 157.0 157.0 L 157.8 157.0 L 158.6 157.0 L 159.4 157.0 L 160.2 157.0 L 160.9 157.0 L 161.7 157.0 L 162.5 157.0 L 163.3 157.0 L 164.0 157.0 L 164.8 157.0 L 165.6 157.0 L 166.4 157.0 L 167.2 157.0 L 167.9 157.0 L 168.7 157.0 L 169.5 157.0 L 170.3 157.0 L 171.1 157.0 L 171.8 157.0 L 172.6 157.0 L 173.4 157.0 L 174.2 157.0 L 174.9 157.0 L 175.7 157.0 L 176.5 157.0 L 177.3 157.0 L 178.1 157.0 L 178.8 157.0 L 179.6 157.0 L 180.4 157.0 L 181.2 157.0 L 181.9 157.0 L 182.7 157.0 L 183.5 157.0 L 184.3 157.0 L 185.1 157.0 L 185.8 157.0 L 186.6 157.0 L 187.4 157.0 L 188.2 157.0 L 188.9 157.0 L 189.7 157.0 L 190.5 157.0 L 191.3 157.0 L 192.1 157.0 L 192.8 157.0 L 193.6 157.0 L 194.4 157.0 L 195.2 157.0 L 196.0 157.0 L 196.7 157.0 L 197.5 157.0 L 198.3 157.0 L 199.1 157.0 L 199.8 157.0 L 200.6 157.0 L 201.4 157.0 L 202.2 157.0 L 203.0 157.0 L 203.7 157.0 L 204.5 157.0 L 205.3 157.0 L 206.1 157.0 L 206.8 157.0 L 207.6 157.0 L 208.4 157.0 L 209.2 157.0 L 210.0 157.0 L 210.7 157.0 L 211.5 157.0 L 212.3 157.0 L 213.1 157.0 L 213.8 157.0 L 214.6 157.0 L 215.4 157.0 L 216.2 157.0 L 217.0 157.0 L 217.7 157.0 L 218.5 157.0 L 219.3 157.0 L 220.1 157.0 L 220.8 157.0 L 221.6 157.0 L 222.4 157.0 L 223.2 157.0 L 224.0 157.0 L 224.7 157.0 L 225.5 157.0 L 226.3 157.0 L 227.1 157.0 L 227.9 157.0 L 228.6 157.0 L 229.4 157.0 L 230.2 157.0 L 231.0 157.0 L 231.7 157.0 L 232.5 157.0 L 233.3 157.0 L 234.1 157.0 L 234.9 157.0 L 235.6 157.0 L 236.4 157.0 L 237.2 157.0 L 238.0 157.0 L 238.7 157.0 L 239.5 157.0 L 240.3 157.0 L 241.1 157.0 L 241.9 157.0 L 242.6 157.0 L 243.4 157.0 L 244.2 157.0 L 245.0 157.0 L 245.7 157.0 L 246.5 157.0 L 247.3 157.0 L 248.1 157.0 L 248.9 157.0 L 249.6 157.0 L 250.4 157.0 L 251.2 157.0 L 252.0 157.0 L 252.8 157.0 L 253.5 157.0 L 254.3 157.0 L 255.1 157.0 L 255.9 157.0 L 256.6 157.0 L 257.4 157.0 L 258.2 157.0 L 259.0 157.0 L 259.8 157.0 L 260.5 157.0 L 261.3 157.0 L 262.1 157.0 L 262.9 157.0 L 263.6 157.0 L 264.4 157.0 L 265.2 157.0 L 266.0 157.0 L 266.8 157.0 L 267.5 157.0 L 268.3 157.0 L 269.1 157.0 L 269.9 157.0 L 270.6 157.0 L 271.4 157.0 L 272.2 157.0 L 273.0 157.0 L 273.8 157.0 L 274.5 157.0 L 275.3 157.0 L 276.1 157.0 L 276.9 157.0 L 277.6 157.0 L 278.4 157.0 L 279.2 157.0 L 280.0 157.0 L 280.8 157.0 L 281.5 157.0 L 282.3 157.0 L 283.1 157.0 L 283.9 157.0 L 284.7 157.0 L 285.4 157.0 L 286.2 157.0 L 287.0 157.0 L 287.8 157.0 L 288.5 157.0 L 289.3 157.0 L 290.1 157.0 L 290.9 157.0 L 291.7 157.0 L 292.4 157.0 L 293.2 157.0 L 294.0 157.0 L 294.8 157.0 L 295.5 157.0 L 296.3 157.0 L 297.1 157.0 L 297.9 157.0 L 298.7 157.0 L 299.4 157.0 L 300.2 157.0 L 301.0 157.0 L 301.8 157.0 L 302.5 157.0 L 303.3 157.0 L 304.1 157.0 L 304.9 157.0 L 305.7 157.0 L 306.4 157.0 L 307.2 157.0 L 308.0 157.0 L 308.8 157.0 L 309.6 157.0 L 310.3 157.0 L 311.1 157.0 L 311.9 157.0 L 312.7 157.0 L 313.4 157.0 L 314.2 157.0 L 315.0 157.0 L 315.8 157.0 L 316.6 157.0 L 317.3 157.0 L 318.1 157.0 L 318.9 157.0 L 319.7 157.0 L 320.4 157.0 L 321.2 84.6 L 322.0 54.0 L 322.0 157.0 Z" fill="#3B6EA8" fill-opacity="0.18" stroke="none"/><path d="M 38.0 157.0 L 38.8 157.0 L 39.6 157.0 L 40.3 157.0 L 41.1 157.0 L 41.9 157.0 L 42.7 157.0 L 43.4 157.0 L 44.2 157.0 L 45.0 157.0 L 45.8 157.0 L 46.6 157.0 L 47.3 157.0 L 48.1 157.0 L 48.9 157.0 L 49.7 157.0 L 50.4 157.0 L 51.2 157.0 L 52.0 157.0 L 52.8 157.0 L 53.6 157.0 L 54.3 157.0 L 55.1 157.0 L 55.9 157.0 L 56.7 157.0 L 57.5 157.0 L 58.2 157.0 L 59.0 157.0 L 59.8 157.0 L 60.6 157.0 L 61.3 157.0 L 62.1 157.0 L 62.9 157.0 L 63.7 157.0 L 64.5 157.0 L 65.2 157.0 L 66.0 157.0 L 66.8 157.0 L 67.6 157.0 L 68.3 157.0 L 69.1 157.0 L 69.9 157.0 L 70.7 157.0 L 71.5 157.0 L 72.2 157.0 L 73.0 157.0 L 73.8 157.0 L 74.6 157.0 L 75.3 157.0 L 76.1 157.0 L 76.9 157.0 L 77.7 157.0 L 78.5 157.0 L 79.2 157.0 L 80.0 157.0 L 80.8 157.0 L 81.6 157.0 L 82.4 157.0 L 83.1 157.0 L 83.9 157.0 L 84.7 157.0 L 85.5 157.0 L 86.2 157.0 L 87.0 157.0 L 87.8 157.0 L 88.6 157.0 L 89.4 157.0 L 90.1 157.0 L 90.9 157.0 L 91.7 157.0 L 92.5 157.0 L 93.2 157.0 L 94.0 157.0 L 94.8 157.0 L 95.6 157.0 L 96.4 157.0 L 97.1 157.0 L 97.9 157.0 L 98.7 157.0 L 99.5 157.0 L 100.2 157.0 L 101.0 157.0 L 101.8 157.0 L 102.6 157.0 L 103.4 157.0 L 104.1 157.0 L 104.9 157.0 L 105.7 157.0 L 106.5 157.0 L 107.2 157.0 L 108.0 157.0 L 108.8 157.0 L 109.6 157.0 L 110.4 157.0 L 111.1 157.0 L 111.9 157.0 L 112.7 157.0 L 113.5 157.0 L 114.3 157.0 L 115.0 157.0 L 115.8 157.0 L 116.6 157.0 L 117.4 157.0 L 118.1 157.0 L 118.9 157.0 L 119.7 157.0 L 120.5 157.0 L 121.3 157.0 L 122.0 157.0 L 122.8 157.0 L 123.6 157.0 L 124.4 157.0 L 125.1 157.0 L 125.9 157.0 L 126.7 157.0 L 127.5 157.0 L 128.3 157.0 L 129.0 157.0 L 129.8 157.0 L 130.6 157.0 L 131.4 157.0 L 132.1 157.0 L 132.9 157.0 L 133.7 157.0 L 134.5 157.0 L 135.3 157.0 L 136.0 157.0 L 136.8 157.0 L 137.6 157.0 L 138.4 157.0 L 139.2 157.0 L 139.9 157.0 L 140.7 157.0 L 141.5 157.0 L 142.3 157.0 L 143.0 157.0 L 143.8 157.0 L 144.6 157.0 L 145.4 157.0 L 146.2 157.0 L 146.9 157.0 L 147.7 157.0 L 148.5 157.0 L 149.3 157.0 L 150.0 157.0 L 150.8 157.0 L 151.6 157.0 L 152.4 157.0 L 153.2 157.0 L 153.9 157.0 L 154.7 157.0 L 155.5 157.0 L 156.3 157.0 L 157.0 157.0 L 157.8 157.0 L 158.6 157.0 L 159.4 157.0 L 160.2 157.0 L 160.9 157.0 L 161.7 157.0 L 162.5 157.0 L 163.3 157.0 L 164.0 157.0 L 164.8 157.0 L 165.6 157.0 L 166.4 157.0 L 167.2 157.0 L 167.9 157.0 L 168.7 157.0 L 169.5 157.0 L 170.3 157.0 L 171.1 157.0 L 171.8 157.0 L 172.6 157.0 L 173.4 157.0 L 174.2 157.0 L 174.9 157.0 L 175.7 157.0 L 176.5 157.0 L 177.3 157.0 L 178.1 157.0 L 178.8 157.0 L 179.6 157.0 L 180.4 157.0 L 181.2 157.0 L 181.9 157.0 L 182.7 157.0 L 183.5 157.0 L 184.3 157.0 L 185.1 157.0 L 185.8 157.0 L 186.6 157.0 L 187.4 157.0 L 188.2 157.0 L 188.9 157.0 L 189.7 157.0 L 190.5 157.0 L 191.3 157.0 L 192.1 157.0 L 192.8 157.0 L 193.6 157.0 L 194.4 157.0 L 195.2 157.0 L 196.0 157.0 L 196.7 157.0 L 197.5 157.0 L 198.3 157.0 L 199.1 157.0 L 199.8 157.0 L 200.6 157.0 L 201.4 157.0 L 202.2 157.0 L 203.0 157.0 L 203.7 157.0 L 204.5 157.0 L 205.3 157.0 L 206.1 157.0 L 206.8 157.0 L 207.6 157.0 L 208.4 157.0 L 209.2 157.0 L 210.0 157.0 L 210.7 157.0 L 211.5 157.0 L 212.3 157.0 L 213.1 157.0 L 213.8 157.0 L 214.6 157.0 L 215.4 157.0 L 216.2 157.0 L 217.0 157.0 L 217.7 157.0 L 218.5 157.0 L 219.3 157.0 L 220.1 157.0 L 220.8 157.0 L 221.6 157.0 L 222.4 157.0 L 223.2 157.0 L 224.0 157.0 L 224.7 157.0 L 225.5 157.0 L 226.3 157.0 L 227.1 157.0 L 227.9 157.0 L 228.6 157.0 L 229.4 157.0 L 230.2 157.0 L 231.0 157.0 L 231.7 157.0 L 232.5 157.0 L 233.3 157.0 L 234.1 157.0 L 234.9 157.0 L 235.6 157.0 L 236.4 157.0 L 237.2 157.0 L 238.0 157.0 L 238.7 157.0 L 239.5 157.0 L 240.3 157.0 L 241.1 157.0 L 241.9 157.0 L 242.6 157.0 L 243.4 157.0 L 244.2 157.0 L 245.0 157.0 L 245.7 157.0 L 246.5 157.0 L 247.3 157.0 L 248.1 157.0 L 248.9 157.0 L 249.6 157.0 L 250.4 157.0 L 251.2 157.0 L 252.0 157.0 L 252.8 157.0 L 253.5 157.0 L 254.3 157.0 L 255.1 157.0 L 255.9 157.0 L 256.6 157.0 L 257.4 157.0 L 258.2 157.0 L 259.0 157.0 L 259.8 157.0 L 260.5 157.0 L 261.3 157.0 L 262.1 157.0 L 262.9 157.0 L 263.6 157.0 L 264.4 157.0 L 265.2 157.0 L 266.0 157.0 L 266.8 157.0 L 267.5 157.0 L 268.3 157.0 L 269.1 157.0 L 269.9 157.0 L 270.6 157.0 L 271.4 157.0 L 272.2 157.0 L 273.0 157.0 L 273.8 157.0 L 274.5 157.0 L 275.3 157.0 L 276.1 157.0 L 276.9 157.0 L 277.6 157.0 L 278.4 157.0 L 279.2 157.0 L 280.0 157.0 L 280.8 157.0 L 281.5 157.0 L 282.3 157.0 L 283.1 157.0 L 283.9 157.0 L 284.7 157.0 L 285.4 157.0 L 286.2 157.0 L 287.0 157.0 L 287.8 157.0 L 288.5 157.0 L 289.3 157.0 L 290.1 157.0 L 290.9 157.0 L 291.7 157.0 L 292.4 157.0 L 293.2 157.0 L 294.0 157.0 L 294.8 157.0 L 295.5 157.0 L 296.3 157.0 L 297.1 157.0 L 297.9 157.0 L 298.7 157.0 L 299.4 157.0 L 300.2 157.0 L 301.0 157.0 L 301.8 157.0 L 302.5 157.0 L 303.3 157.0 L 304.1 157.0 L 304.9 157.0 L 305.7 157.0 L 306.4 157.0 L 307.2 157.0 L 308.0 157.0 L 308.8 157.0 L 309.6 157.0 L 310.3 157.0 L 311.1 157.0 L 311.9 157.0 L 312.7 157.0 L 313.4 157.0 L 314.2 157.0 L 315.0 157.0 L 315.8 157.0 L 316.6 157.0 L 317.3 157.0 L 318.1 157.0 L 318.9 157.0 L 319.7 157.0 L 320.4 157.0 L 321.2 84.6 L 322.0 54.0" fill="none" stroke="#3B6EA8" stroke-width="2" stroke-linejoin="round" stroke-linecap="round"/><circle cx="322.0" cy="54.0" r="3.5" fill="#C04040" stroke="#FFFFFF" stroke-width="1"/><text x="314.0" y="49.0" fill="#C04040" font-size="11" font-weight="700" text-anchor="end">37</text><text x="38.0" y="169" fill="#7A7A7A" font-size="9" text-anchor="start">May 2025</text><text x="180.4" y="169" fill="#7A7A7A" font-size="9" text-anchor="middle">Nov 2025</text><text x="322.0" y="169" fill="#7A7A7A" font-size="9" text-anchor="end">May 2026</text><text x="170.0" y="187" fill="#7A7A7A" font-size="9" text-anchor="middle">running total · ends at 37 on 2026-05-04</text></svg>