<svg xmlns="http://www.w3.org/2000/svg" xmlns:xlink="http://www.w3.org/1999/xlink" width="340" height="195" viewBox="0 0 340 195" font-family="-apple-system,BlinkMacSystemFont,Segoe UI,Helvetica,Arial,sans-serif"><rect x="0.5" y="0.5" width="339" height="194" rx="8" fill="#FFFFFF" stroke="#E5E5E5" stroke-width="1"/><text x="170.0" y="26" fill="#3B6EA8" font-size="13" font-weight="700" text-anchor="middle">Cumulative contributions</text><line x1="16" y1="38" x2="324" y2="38" stroke="#CCCCCC" stroke-width="0.6"/><line x1="38" y1="157.0" x2="322" y2="157.0" stroke="#E5E5E5" stroke-width="0.5"/><text x="34" y="160.0" fill="#7A7A7A" font-size="8" text-anchor="end">0</text><line x1="38" y1="131.25" x2="322" y2="131.25" stroke="#E5E5E5" stroke-width="0.5"/><text x="34" y="134.25" fill="#7A7A7A" font-size="8" text-anchor="end">14</text><line x1="38" y1="105.5" x2="322" y2="105.5" stroke="#E5E5E5" stroke-width="0.5"/><text x="34" y="108.5" fill="#7A7A7A" font-size="8" text-anchor="end">28</text><line x1="38" y1="79.75" x2="322" y2="79.75" stroke="#E5E5E5" stroke-width="0.5"/><text x="34" y="82.75" fill="#7A7A7A" font-size="8" text-anchor="end">42</text><line x1="38" y1="54.0" x2="322" y2="54.0" stroke="#E5E5E5" stroke-width="0.5"/><text x="34" y="57.0" fill="#7A7A7A" font-size="8" text-anchor="end">56</text><path d="M 38 157.0 L 38.0 157.0 L 38.8 157.0 L 39.6 157.0 L 40.3 157.0 L 41.1 157.0 L 41.9 157.0 L 42.7 157.0 L 43.5 157.0 L 44.2 157.0 L 45.0 157.0 L 45.8 157.0 L 46.6 157.0 L 47.4 157.0 L 48.1 157.0 L 48.9 157.0 L 49.7 157.0 L 50.5 157.0 L 51.3 157.0 L 52.0 157.0 L 52.8 157.0 L 53.6 157.0 L 54.4 157.0 L 55.2 157.0 L 55.9 157.0 L 56.7 157.0 L 57.5 157.0 L 58.3 157.0 L 59.1 157.0 L 59.8 157.0 L 60.6 157.0 L 61.4 157.0 L 62.2 157.0 L 63.0 157.0 L 63.7 157.0 L 64.5 157.0 L 65.3 157.0 L 66.1 157.0 L 66.9 157.0 L 67.6 157.0 L 68.4 157.0 L 69.2 157.0 L 70.0 157.0 L 70.8 157.0 L 71.5 157.0 L 72.3 157.0 L 73.1 157.0 L 73.9 157.0 L 74.7 157.0 L 75.5 157.0 L 76.2 157.0 L 77.0 157.0 L 77.8 157.0 L 78.6 157.0 L 79.4 157.0 L 80.1 157.0 L 80.9 157.0 L 81.7 157.0 L 82.5 157.0 L 83.3 157.0 L 84.0 157.0 L 84.8 157.0 L 85.6 157.0 L 86.4 157.0 L 87.2 157.0 L 87.9 157.0 L 88.7 157.0 L 89.5 157.0 L 90.3 157.0 L 91.1 157.0 L 91.8 157.0 L 92.6 157.0 L 93.4 157.0 L 94.2 157.0 L 95.0 157.0 L 95.7 157.0 L 96.5 157.0 L 97.3 157.0 L 98.1 157.0 L 98.9 157.0 L 99.6 157.0 L 100.4 157.0 L 101.2 157.0 L 102.0 157.0 L 102.8 157.0 L 103.5 157.0 L 104.3 157.0 L 105.1 157.0 L 105.9 157.0 L 106.7 157.0 L 107.4 157.0 L 108.2 157.0 L 109.0 157.0 L 109.8 157.0 L 110.6 157.0 L 111.3 157.0 L 112.1 157.0 L 112.9 157.0 L 113.7 157.0 L 114.5 157.0 L 115.2 157.0 L 116.0 157.0 L 116.8 157.0 L 117.6 157.0 L 118.4 157.0 L 119.1 157.0 L 119.9 157.0 L 120.7 157.0 L 121.5 157.0 L 122.3 157.0 L 123.0 157.0 L 123.8 157.0 L 124.6 157.0 L 125.4 157.0 L 126.2 157.0 L 126.9 157.0 L 127.7 157.0 L 128.5 157.0 L 129.3 157.0 L 130.1 157.0 L 130.8 157.0 L 131.6 157.0 L 132.4 157.0 L 133.2 157.0 L 134.0 157.0 L 134.7 157.0 L 135.5 157.0 L 136.3 157.0 L 137.1 157.0 L 137.9 157.0 L 138.6 157.0 L 139.4 157.0 L 140.2 157.0 L 141.0 157.0 L 141.8 157.0 L 142.5 157.0 L 143.3 157.0 L 144.1 157.0 L 144.9 157.0 L 145.7 157.0 L 146.5 157.0 L 147.2 157.0 L 148.0 157.0 L 148.8 157.0 L 149.6 157.0 L 150.4 157.0 L 151.1 157.0 L 151.9 157.0 L 152.7 157.0 L 153.5 157.0 L 154.3 157.0 L 155.0 157.0 L 155.8 157.0 L 156.6 157.0 L 157.4 157.0 L 158.2 157.0 L 158.9 157.0 L 159.7 157.0 L 160.5 157.0 L 161.3 157.0 L 162.1 157.0 L 162.8 157.0 L 163.6 157.0 L 164.4 157.0 L 165.2 157.0 L 166.0 157.0 L 166.7 157.0 L 167.5 157.0 L 168.3 157.0 L 169.1 157.0 L 169.9 157.0 L 170.6 157.0 L 171.4 157.0 L 172.2 157.0 L 173.0 157.0 L 173.8 157.0 L 174.5 157.0 L 175.3 157.0 L 176.1 157.0 L 176.9 157.0 L 177.7 157.0 L 178.4 157.0 L 179.2 157.0 L 180.0 157.0 L 180.8 157.0 L 181.6 157.0 L 182.3 157.0 L 183.1 157.0 L 183.9 157.0 L 184.7 157.0 L 185.5 157.0 L 186.2 157.0 L 187.0 157.0 L 187.8 157.0 L 188.6 157.0 L 189.4 157.0 L 190.1 157.0 L 190.9 157.0 L 191.7 157.0 L 192.5 157.0 L 193.3 157.0 L 194.0 157.0 L 194.8 157.0 L 195.6 157.0 L 196.4 157.0 L 197.2 157.0 L 197.9 157.0 L 198.7 157.0 L 199.5 157.0 L 200.3 157.0 L 201.1 157.0 L 201.8 157.0 L 202.6 157.0 L 203.4 157.0 L 204.2 157.0 L 205.0 157.0 L 205.7 157.0 L 206.5 157.0 L 207.3 157.0 L 208.1 157.0 L 208.9 157.0 L 209.6 157.0 L 210.4 157.0 L 211.2 157.0 L 212.0 157.0 L 212.8 157.0 L 213.5 157.0 L 214.3 157.0 L 215.1 157.0 L 215.9 157.0 L 216.7 157.0 L 217.5 157.0 L 218.2 157.0 L 219.0 157.0 L 219.8 157.0 L 220.6 157.0 L 221.4 157.0 L 222.1 157.0 L 222.9 157.0 L 223.7 157.0 L 224.5 157.0 L 225.3 157.0 L 226.0 157.0 L 226.8 157.0 L 227.6 157.0 L 228.4 157.0 L 229.2 157.0 L 229.9 157.0 L 230.7 157.0 L 231.5 157.0 L 232.3 157.0 L 233.1 157.0 L 233.8 157.0 L 234.6 157.0 L 235.4 157.0 L 236.2 157.0 L 237.0 157.0 L 237.7 157.0 L 238.5 157.0 L 239.3 157.0 L 240.1 157.0 L 240.9 157.0 L 241.6 157.0 L 242.4 157.0 L 243.2 157.0 L 244.0 157.0 L 244.8 157.0 L 245.5 157.0 L 246.3 157.0 L 247.1 157.0 L 247.9 157.0 L 248.7 157.0 L 249.4 157.0 L 250.2 157.0 L 251.0 157.0 L 251.8 157.0 L 252.6 157.0 L 253.3 157.0 L 254.1 157.0 L 254.9 157.0 L 255.7 157.0 L 256.5 157.0 L 257.2 157.0 L 258.0 157.0 L 258.8 157.0 L 259.6 157.0 L 260.4 157.0 L 261.1 157.0 L 261.9 157.0 L 262.7 157.0 L 263.5 157.0 L 264.3 157.0 L 265.0 157.0 L 265.8 157.0 L 266.6 157.0 L 267.4 157.0 L 268.2 157.0 L 268.9 157.0 L 269.7 157.0 L 270.5 157.0 L 271.3 157.0 L 272.1 157.0 L 272.8 157.0 L 273.6 157.0 L 274.4 157.0 L 275.2 157.0 L 276.0 157.0 L 276.7 157.0 L 277.5 157.0 L 278.3 157.0 L 279.1 157.0 L 279.9 157.0 L 280.6 157.0 L 281.4 157.0 L 282.2 157.0 L 283.0 157.0 L 283.8 157.0 L 284.5 157.0 L 285.3 157.0 L 286.1 157.0 L 286.9 157.0 L 287.7 157.0 L 288.5 157.0 L 289.2 157.0 L 290.0 157.0 L 290.8 157.0 L 291.6 157.0 L 292.4 157.0 L 293.1 157.0 L 293.9 157.0 L 294.7 157.0 L 295.5 157.0 L 296.3 157.0 L 297.0 157.0 L 297.8 157.0 L 298.6 157.0 L 299.4 157.0 L 300.2 157.0 L 300.9 157.0 L 301.7 157.0 L 302.5 157.0 L 303.3 157.0 L 304.1 157.0 L 304.8 157.0 L 305.6 157.0 L 306.4 157.0 L 307.2 157.0 L 308.0 157.0 L 308.7 157.0 L 309.5 157.0 L 310.3 157.0 L 311.1 157.0 L 311.9 157.0 L 312.6 157.0 L 313.4 157.0 L 314.2 157.0 L 315.0 157.0 L 315.8 157.0 L 316.5 107.3 L 317.3 59.5 L 318.1 54.0 L 318.9 54.0 L 319.7 54.0 L 320.4 54.0 L 321.2 54.0 L 322.0 54.0 L 322.0 157.0 Z" fill="#3B6EA8" fill-opacity="0.18" stroke="none"/><path d="M 38.0 157.0 L 38.8 157.0 L 39.6 157.0 L 40.3 157.0 L 41.1 157.0 L 41.9 157.0 L 42.7 157.0 L 43.5 157.0 L 44.2 157.0 L 45.0 157.0 L 45.8 157.0 L 46.6 157.0 L 47.4 157.0 L 48.1 157.0 L 48.9 157.0 L 49.7 157.0 L 50.5 157.0 L 51.3 157.0 L 52.0 157.0 L 52.8 157.0 L 53.6 157.0 L 54.4 157.0 L 55.2 157.0 L 55.9 157.0 L 56.7 157.0 L 57.5 157.0 L 58.3 157.0 L 59.1 157.0 L 59.8 157.0 L 60.6 157.0 L 61.4 157.0 L 62.2 157.0 L 63.0 157.0 L 63.7 157.0 L 64.5 157.0 L 65.3 157.0 L 66.1 157.0 L 66.9 157.0 L 67.6 157.0 L 68.4 157.0 L 69.2 157.0 L 70.0 157.0 L 70.8 157.0 L 71.5 157.0 L 72.3 157.0 L 73.1 157.0 L 73.9 157.0 L 74.7 157.0 L 75.5 157.0 L 76.2 157.0 L 77.0 157.0 L 77.8 157.0 L 78.6 157.0 L 79.4 157.0 L 80.1 157.0 L 80.9 157.0 L 81.7 157.0 L 82.5 157.0 L 83.3 157.0 L 84.0 157.0 L 84.8 157.0 L 85.6 157.0 L 86.4 157.0 L 87.2 157.0 L 87.9 157.0 L 88.7 157.0 L 89.5 157.0 L 90.3 157.0 L 91.1 157.0 L 91.8 157.0 L 92.6 157.0 L 93.4 157.0 L 94.2 157.0 L 95.0 157.0 L 95.7 157.0 L 96.5 157.0 L 97.3 157.0 L 98.1 157.0 L 98.9 157.0 L 99.6 157.0 L 100.4 157.0 L 101.2 157.0 L 102.0 157.0 L 102.8 157.0 L 103.5 157.0 L 104.3 157.0 L 105.1 157.0 L 105.9 157.0 L 106.7 157.0 L 107.4 157.0 L 108.2 157.0 L 109.0 157.0 L 109.8 157.0 L 110.6 157.0 L 111.3 157.0 L 112.1 157.0 L 112.9 157.0 L 113.7 157.0 L 114.5 157.0 L 115.2 157.0 L 116.0 157.0 L 116.8 157.0 L 117.6 157.0 L 118.4 157.0 L 119.1 157.0 L 119.9 157.0 L 120.7 157.0 L 121.5 157.0 L 122.3 157.0 L 123.0 157.0 L 123.8 157.0 L 124.6 157.0 L 125.4 157.0 L 126.2 157.0 L 126.9 157.0 L 127.7 157.0 L 128.5 157.0 L 129.3 157.0 L 130.1 157.0 L 130.8 157.0 L 131.6 157.0 L 132.4 157.0 L 133.2 157.0 L 134.0 157.0 L 134.7 157.0 L 135.5 157.0 L 136.3 157.0 L 137.1 157.0 L 137.9 157.0 L 138.6 157.0 L 139.4 157.0 L 140.2 157.0 L 141.0 157.0 L 141.8 157.0 L 142.5 157.0 L 143.3 157.0 L 144.1 157.0 L 144.9 157.0 L 145.7 157.0 L 146.5 157.0 L 147.2 157.0 L 148.0 157.0 L 148.8 157.0 L 149.6 157.0 L 150.4 157.0 L 151.1 157.0 L 151.9 157.0 L 152.7 157.0 L 153.5 157.0 L 154.3 157.0 L 155.0 157.0 L 155.8 157.0 L 156.6 157.0 L 157.4 157.0 L 158.2 157.0 L 158.9 157.0 L 159.7 157.0 L 160.5 157.0 L 161.3 157.0 L 162.1 157.0 L 162.8 157.0 L 163.6 157.0 L 164.4 157.0 L 165.2 157.0 L 166.0 157.0 L 166.7 157.0 L 167.5 157.0 L 168.3 157.0 L 169.1 157.0 L 169.9 157.0 L 170.6 157.0 L 171.4 157.0 L 172.2 157.0 L 173.0 157.0 L 173.8 157.0 L 174.5 157.0 L 175.3 157.0 L 176.1 157.0 L 176.9 157.0 L 177.7 157.0 L 178.4 157.0 L 179.2 157.0 L 180.0 157.0 L 180.8 157.0 L 181.6 157.0 L 182.3 157.0 L 183.1 157.0 L 183.9 157.0 L 184.7 157.0 L 185.5 157.0 L 186.2 157.0 L 187.0 157.0 L 187.8 157.0 L 188.6 157.0 L 189.4 157.0 L 190.1 157.0 L 190.9 157.0 L 191.7 157.0 L 192.5 157.0 L 193.3 157.0 L 194.0 157.0 L 194.8 157.0 L 195.6 157.0 L 196.4 157.0 L 197.2 157.0 L 197.9 157.0 L 198.7 157.0 L 199.5 157.0 L 200.3 157.0 L 201.1 157.0 L 201.8 157.0 L 202.6 157.0 L 203.4 157.0 L 204.2 157.0 L 205.0 157.0 L 205.7 157.0 L 206.5 157.0 L 207.3 157.0 L 208.1 157.0 L 208.9 157.0 L 209.6 157.0 L 210.4 157.0 L 211.2 157.0 L 212.0 157.0 L 212.8 157.0 L 213.5 157.0 L 214.3 157.0 L 215.1 157.0 L 215.9 157.0 L 216.7 157.0 L 217.5 157.0 L 218.2 157.0 L 219.0 157.0 L 219.8 157.0 L 220.6 157.0 L 221.4 157.0 L 222.1 157.0 L 222.9 157.0 L 223.7 157.0 L 224.5 157.0 L 225.3 157.0 L 226.0 157.0 L 226.8 157.0 L 227.6 157.0 L 228.4 157.0 L 229.2 157.0 L 229.9 157.0 L 230.7 157.0 L 231.5 157.0 L 232.3 157.0 L 233.1 157.0 L 233.8 157.0 L 234.6 157.0 L 235.4 157.0 L 236.2 157.0 L 237.0 157.0 L 237.7 157.0 L 238.5 157.0 L 239.3 157.0 L 240.1 157.0 L 240.9 157.0 L 241.6 157.0 L 242.4 157.0 L 243.2 157.0 L 244.0 157.0 L 244.8 157.0 L 245.5 157.0 L 246.3 157.0 L 247.1 157.0 L 247.9 157.0 L 248.7 157.0 L 249.4 157.0 L 250.2 157.0 L 251.0 157.0 L 251.8 157.0 L 252.6 157.0 L 253.3 157.0 L 254.1 157.0 L 254.9 157.0 L 255.7 157.0 L 256.5 157.0 L 257.2 157.0 L 258.0 157.0 L 258.8 157.0 L 259.6 157.0 L 260.4 157.0 L 261.1 157.0 L 261.9 157.0 L 262.7 157.0 L 263.5 157.0 L 264.3 157.0 L 265.0 157.0 L 265.8 157.0 L 266.6 157.0 L 267.4 157.0 L 268.2 157.0 L 268.9 157.0 L 269.7 157.0 L 270.5 157.0 L 271.3 157.0 L 272.1 157.0 L 272.8 157.0 L 273.6 157.0 L 274.4 157.0 L 275.2 157.0 L 276.0 157.0 L 276.7 157.0 L 277.5 157.0 L 278.3 157.0 L 279.1 157.0 L 279.9 157.0 L 280.6 157.0 L 281.4 157.0 L 282.2 157.0 L 283.0 157.0 L 283.8 157.0 L 284.5 157.0 L 285.3 157.0 L 286.1 157.0 L 286.9 157.0 L 287.7 157.0 L 288.5 157.0 L 289.2 157.0 L 290.0 157.0 L 290.8 157.0 L 291.6 157.0 L 292.4 157.0 L 293.1 157.0 L 293.9 157.0 L 294.7 157.0 L 295.5 157.0 L 296.3 157.0 L 297.0 157.0 L 297.8 157.0 L 298.6 157.0 L 299.4 157.0 L 300.2 157.0 L 300.9 157.0 L 301.7 157.0 L 302.5 157.0 L 303.3 157.0 L 304.1 157.0 L 304.8 157.0 L 305.6 157.0 L 306.4 157.0 L 307.2 157.0 L 308.0 157.0 L 308.7 157.0 L 309.5 157.0 L 310.3 157.0 L 311.1 157.0 L 311.9 157.0 L 312.6 157.0 L 313.4 157.0 L 314.2 157.0 L 315.0 157.0 L 315.8 157.0 L 316.5 107.3 L 317.3 59.5 L 318.1 54.0 L 318.9 54.0 L 319.7 54.0 L 320.4 54.0 L 321.2 54.0 L 322.0 54.0" fill="none" stroke="#3B6EA8" stroke-width="2" stroke-linejoin="round" stroke-linecap="round"/><circle cx="322.0" cy="54.0" r="3.5" fill="#C04040" stroke="#FFFFFF" stroke-width="1"/><text x="314.0" y="49.0" fill="#C04040" font-size="11" font-weight="700" text-anchor="end">56</text><text x="38.0" y="169" fill="#7A7A7A" font-size="9" text-anchor="start">May 2025</text><text x="180.0" y="169" fill="#7A7A7A" font-size="9" text-anchor="middle">Nov 2025</text><text x="322.0" y="169" fill="#7A7A7A" font-size="9" text-anchor="end">May 2026</text><text x="170.0" y="187" fill="#7A7A7A" font-size="9" text-anchor="middle">running total · ends at 56 on 2026-05-10</text></svg>