<svg xmlns="http://www.w3.org/2000/svg" xmlns:xlink="http://www.w3.org/1999/xlink" width="340" height="210" viewBox="0 0 340 210" font-family="-apple-system,BlinkMacSystemFont,Segoe UI,Helvetica,Arial,sans-serif"><rect x="0.5" y="0.5" width="339" height="209" rx="8" fill="#FFFFFF" stroke="#E5E5E5" stroke-width="1"/><text x="170.0" y="32" fill="#3B6EA8" font-size="16" font-weight="700" text-anchor="middle">Most Used Languages</text><line x1="20" y1="46" x2="320" y2="46" stroke="#CCCCCC" stroke-width="0.6"/><text x="22" y="75" fill="#333333" font-size="12">HTML</text><rect x="120" y="65" width="170" height="10" rx="3" fill="#CCCCCC" opacity="0.55"/><rect x="120" y="65" width="66" height="10" rx="3" fill="#e34c26"/><text x="318" y="75" fill="#7A7A7A" font-size="11" text-anchor="end">38.9%</text><text x="22" y="97" fill="#333333" font-size="12">Java</text><rect x="120" y="87" width="170" height="10" rx="3" fill="#CCCCCC" opacity="0.55"/><rect x="120" y="87" width="58" height="10" rx="3" fill="#b07219"/><text x="318" y="97" fill="#7A7A7A" font-size="11" text-anchor="end">34.4%</text><text x="22" y="119" fill="#333333" font-size="12">JavaScript</text><rect x="120" y="109" width="170" height="10" rx="3" fill="#CCCCCC" opacity="0.55"/><rect x="120" y="109" width="23" height="10" rx="3" fill="#f1e05a"/><text x="318" y="119" fill="#7A7A7A" font-size="11" text-anchor="end">13.8%</text><text x="22" y="141" fill="#333333" font-size="12">CSS</text><rect x="120" y="131" width="170" height="10" rx="3" fill="#CCCCCC" opacity="0.55"/><rect x="120" y="131" width="8" height="10" rx="3" fill="#663399"/><text x="318" y="141" fill="#7A7A7A" font-size="11" text-anchor="end">5.0%</text><text x="22" y="163" fill="#333333" font-size="12">C#</text><rect x="120" y="153" width="170" height="10" rx="3" fill="#CCCCCC" opacity="0.55"/><rect x="120" y="153" width="7" height="10" rx="3" fill="#178600"/><text x="318" y="163" fill="#7A7A7A" font-size="11" text-anchor="end">4.2%</text><text x="22" y="185" fill="#333333" font-size="12">Python</text><rect x="120" y="175" width="170" height="10" rx="3" fill="#CCCCCC" opacity="0.55"/><rect x="120" y="175" width="6" height="10" rx="3" fill="#3572A5"/><text x="318" y="185" fill="#7A7A7A" font-size="11" text-anchor="end">3.7%</text><text x="170.0" y="200" fill="#7A7A7A" font-size="10" text-anchor="middle">by bytes across public non-fork repos · 2026-05-04</text></svg>