<svg xmlns="http://www.w3.org/2000/svg" xmlns:xlink="http://www.w3.org/1999/xlink" width="340" height="195" viewBox="0 0 340 195" font-family="-apple-system,BlinkMacSystemFont,Segoe UI,Helvetica,Arial,sans-serif"><rect x="0.5" y="0.5" width="339" height="194" rx="8" fill="#FFFFFF" stroke="#E5E5E5" stroke-width="1"/><text x="170.0" y="26" fill="#3B6EA8" font-size="13" font-weight="700" text-anchor="middle">Most Used Languages</text><line x1="16" y1="38" x2="324" y2="38" stroke="#CCCCCC" stroke-width="0.6"/><text x="20" y="64" fill="#333333" font-size="11">HTML</text><rect x="110" y="56" width="175" height="9" rx="2.5" fill="#CCCCCC" opacity="0.55"/><rect x="110" y="56" width="48" height="9" rx="2.5" fill="#e34c26"/><text x="320" y="64" fill="#7A7A7A" font-size="10" text-anchor="end">28.0%</text><text x="20" y="83" fill="#333333" font-size="11">Java</text><rect x="110" y="75" width="175" height="9" rx="2.5" fill="#CCCCCC" opacity="0.55"/><rect x="110" y="75" width="40" height="9" rx="2.5" fill="#b07219"/><text x="320" y="83" fill="#7A7A7A" font-size="10" text-anchor="end">22.9%</text><text x="20" y="102" fill="#333333" font-size="11">JavaScript</text><rect x="110" y="94" width="175" height="9" rx="2.5" fill="#CCCCCC" opacity="0.55"/><rect x="110" y="94" width="38" height="9" rx="2.5" fill="#f1e05a"/><text x="320" y="102" fill="#7A7A7A" font-size="10" text-anchor="end">22.1%</text><text x="20" y="121" fill="#333333" font-size="11">Python</text><rect x="110" y="113" width="175" height="9" rx="2.5" fill="#CCCCCC" opacity="0.55"/><rect x="110" y="113" width="36" height="9" rx="2.5" fill="#3572A5"/><text x="320" y="121" fill="#7A7A7A" font-size="10" text-anchor="end">21.1%</text><text x="20" y="140" fill="#333333" font-size="11">CSS</text><rect x="110" y="132" width="175" height="9" rx="2.5" fill="#CCCCCC" opacity="0.55"/><rect x="110" y="132" width="5" height="9" rx="2.5" fill="#663399"/><text x="320" y="140" fill="#7A7A7A" font-size="10" text-anchor="end">3.1%</text><text x="20" y="159" fill="#333333" font-size="11">C#</text><rect x="110" y="151" width="175" height="9" rx="2.5" fill="#CCCCCC" opacity="0.55"/><rect x="110" y="151" width="4" height="9" rx="2.5" fill="#178600"/><text x="320" y="159" fill="#7A7A7A" font-size="10" text-anchor="end">2.8%</text><text x="170.0" y="187" fill="#7A7A7A" font-size="9" text-anchor="middle">by bytes · 2026-06-18</text></svg>