<svg xmlns="http://www.w3.org/2000/svg" xmlns:xlink="http://www.w3.org/1999/xlink" width="700" height="200" viewBox="0 0 700 200" font-family="-apple-system,BlinkMacSystemFont,Segoe UI,Helvetica,Arial,sans-serif"><rect x="0.5" y="0.5" width="699" height="199" rx="8" fill="#FFFFFF" stroke="#E5E5E5" stroke-width="1"/><text x="350.0" y="32" fill="#3B6EA8" font-size="16" font-weight="700" text-anchor="middle">Weekly contribution trend (last 26 weeks)</text><line x1="20" y1="46" x2="680" y2="46" stroke="#CCCCCC" stroke-width="0.6"/><line x1="50" y1="170.0" x2="670" y2="170.0" stroke="#E5E5E5" stroke-width="0.6"/><text x="44" y="173.0" fill="#7A7A7A" font-size="9" text-anchor="end">0</text><line x1="50" y1="142.5" x2="670" y2="142.5" stroke="#E5E5E5" stroke-width="0.6"/><text x="44" y="145.5" fill="#7A7A7A" font-size="9" text-anchor="end">8</text><line x1="50" y1="115.0" x2="670" y2="115.0" stroke="#E5E5E5" stroke-width="0.6"/><text x="44" y="118.0" fill="#7A7A7A" font-size="9" text-anchor="end">16</text><line x1="50" y1="87.5" x2="670" y2="87.5" stroke="#E5E5E5" stroke-width="0.6"/><text x="44" y="90.5" fill="#7A7A7A" font-size="9" text-anchor="end">23</text><line x1="50" y1="60.0" x2="670" y2="60.0" stroke="#E5E5E5" stroke-width="0.6"/><text x="44" y="63.0" fill="#7A7A7A" font-size="9" text-anchor="end">31</text><text x="50.0" y="184" fill="#7A7A7A" font-size="9" text-anchor="middle">Nov 03</text><text x="149.2" y="184" fill="#7A7A7A" font-size="9" text-anchor="middle">Dec 01</text><text x="248.4" y="184" fill="#7A7A7A" font-size="9" text-anchor="middle">Dec 29</text><text x="347.6" y="184" fill="#7A7A7A" font-size="9" text-anchor="middle">Jan 26</text><text x="446.8" y="184" fill="#7A7A7A" font-size="9" text-anchor="middle">Feb 23</text><text x="546.0" y="184" fill="#7A7A7A" font-size="9" text-anchor="middle">Mar 23</text><text x="645.2" y="184" fill="#7A7A7A" font-size="9" text-anchor="middle">Apr 20</text><path d="M 50 170 L 50.0 170.0 L 74.8 170.0 L 99.6 170.0 L 124.4 170.0 L 149.2 170.0 L 174.0 170.0 L 198.8 170.0 L 223.6 170.0 L 248.4 170.0 L 273.2 170.0 L 298.0 170.0 L 322.8 170.0 L 347.6 170.0 L 372.4 170.0 L 397.2 170.0 L 422.0 170.0 L 446.8 170.0 L 471.6 170.0 L 496.4 170.0 L 521.2 170.0 L 546.0 170.0 L 570.8 170.0 L 595.6 170.0 L 620.4 170.0 L 645.2 170.0 L 670.0 60.0 L 670.0 170 Z" fill="#3B6EA8" fill-opacity="0.18" stroke="none"/><path d="M 50.0 170.0 L 74.8 170.0 L 99.6 170.0 L 124.4 170.0 L 149.2 170.0 L 174.0 170.0 L 198.8 170.0 L 223.6 170.0 L 248.4 170.0 L 273.2 170.0 L 298.0 170.0 L 322.8 170.0 L 347.6 170.0 L 372.4 170.0 L 397.2 170.0 L 422.0 170.0 L 446.8 170.0 L 471.6 170.0 L 496.4 170.0 L 521.2 170.0 L 546.0 170.0 L 570.8 170.0 L 595.6 170.0 L 620.4 170.0 L 645.2 170.0 L 670.0 60.0" fill="none" stroke="#3B6EA8" stroke-width="2" stroke-linejoin="round" stroke-linecap="round"/><circle cx="50.0" cy="170.0" r="2" fill="#3B6EA8" stroke="#FFFFFF" stroke-width="1"><title>2025-11-03: 0 contribution(s)</title></circle><circle cx="74.8" cy="170.0" r="2" fill="#3B6EA8" stroke="#FFFFFF" stroke-width="1"><title>2025-11-10: 0 contribution(s)</title></circle><circle cx="99.6" cy="170.0" r="2" fill="#3B6EA8" stroke="#FFFFFF" stroke-width="1"><title>2025-11-17: 0 contribution(s)</title></circle><circle cx="124.4" cy="170.0" r="2" fill="#3B6EA8" stroke="#FFFFFF" stroke-width="1"><title>2025-11-24: 0 contribution(s)</title></circle><circle cx="149.2" cy="170.0" r="2" fill="#3B6EA8" stroke="#FFFFFF" stroke-width="1"><title>2025-12-01: 0 contribution(s)</title></circle><circle cx="174.0" cy="170.0" r="2" fill="#3B6EA8" stroke="#FFFFFF" stroke-width="1"><title>2025-12-08: 0 contribution(s)</title></circle><circle cx="198.8" cy="170.0" r="2" fill="#3B6EA8" stroke="#FFFFFF" stroke-width="1"><title>2025-12-15: 0 contribution(s)</title></circle><circle cx="223.6" cy="170.0" r="2" fill="#3B6EA8" stroke="#FFFFFF" stroke-width="1"><title>2025-12-22: 0 contribution(s)</title></circle><circle cx="248.4" cy="170.0" r="2" fill="#3B6EA8" stroke="#FFFFFF" stroke-width="1"><title>2025-12-29: 0 contribution(s)</title></circle><circle cx="273.2" cy="170.0" r="2" fill="#3B6EA8" stroke="#FFFFFF" stroke-width="1"><title>2026-01-05: 0 contribution(s)</title></circle><circle cx="298.0" cy="170.0" r="2" fill="#3B6EA8" stroke="#FFFFFF" stroke-width="1"><title>2026-01-12: 0 contribution(s)</title></circle><circle cx="322.8" cy="170.0" r="2" fill="#3B6EA8" stroke="#FFFFFF" stroke-width="1"><title>2026-01-19: 0 contribution(s)</title></circle><circle cx="347.6" cy="170.0" r="2" fill="#3B6EA8" stroke="#FFFFFF" stroke-width="1"><title>2026-01-26: 0 contribution(s)</title></circle><circle cx="372.4" cy="170.0" r="2" fill="#3B6EA8" stroke="#FFFFFF" stroke-width="1"><title>2026-02-02: 0 contribution(s)</title></circle><circle cx="397.2" cy="170.0" r="2" fill="#3B6EA8" stroke="#FFFFFF" stroke-width="1"><title>2026-02-09: 0 contribution(s)</title></circle><circle cx="422.0" cy="170.0" r="2" fill="#3B6EA8" stroke="#FFFFFF" stroke-width="1"><title>2026-02-16: 0 contribution(s)</title></circle><circle cx="446.8" cy="170.0" r="2" fill="#3B6EA8" stroke="#FFFFFF" stroke-width="1"><title>2026-02-23: 0 contribution(s)</title></circle><circle cx="471.6" cy="170.0" r="2" fill="#3B6EA8" stroke="#FFFFFF" stroke-width="1"><title>2026-03-02: 0 contribution(s)</title></circle><circle cx="496.4" cy="170.0" r="2" fill="#3B6EA8" stroke="#FFFFFF" stroke-width="1"><title>2026-03-09: 0 contribution(s)</title></circle><circle cx="521.2" cy="170.0" r="2" fill="#3B6EA8" stroke="#FFFFFF" stroke-width="1"><title>2026-03-16: 0 contribution(s)</title></circle><circle cx="546.0" cy="170.0" r="2" fill="#3B6EA8" stroke="#FFFFFF" stroke-width="1"><title>2026-03-23: 0 contribution(s)</title></circle><circle cx="570.8" cy="170.0" r="2" fill="#3B6EA8" stroke="#FFFFFF" stroke-width="1"><title>2026-03-30: 0 contribution(s)</title></circle><circle cx="595.6" cy="170.0" r="2" fill="#3B6EA8" stroke="#FFFFFF" stroke-width="1"><title>2026-04-06: 0 contribution(s)</title></circle><circle cx="620.4" cy="170.0" r="2" fill="#3B6EA8" stroke="#FFFFFF" stroke-width="1"><title>2026-04-13: 0 contribution(s)</title></circle><circle cx="645.2" cy="170.0" r="2" fill="#3B6EA8" stroke="#FFFFFF" stroke-width="1"><title>2026-04-20: 0 contribution(s)</title></circle><circle cx="670.0" cy="60.0" r="3.5" fill="#C04040" stroke="#FFFFFF" stroke-width="1"><title>2026-04-27: 31 contribution(s)</title></circle><text x="350.0" y="190" fill="#7A7A7A" font-size="10" text-anchor="middle">red dot = peak week · updated 2026-05-03</text></svg>