<svg xmlns="http://www.w3.org/2000/svg" xmlns:xlink="http://www.w3.org/1999/xlink" width="340" height="195" viewBox="0 0 340 195" font-family="-apple-system,BlinkMacSystemFont,Segoe UI,Helvetica,Arial,sans-serif"><rect x="0.5" y="0.5" width="339" height="194" rx="8" fill="#FFFFFF" stroke="#E5E5E5" stroke-width="1"/><text x="170.0" y="26" fill="#3B6EA8" font-size="13" font-weight="700" text-anchor="middle">Weekday rhythm (last 12 months)</text><line x1="16" y1="38" x2="324" y2="38" stroke="#CCCCCC" stroke-width="0.6"/><line x1="38" y1="157.0" x2="326" y2="157.0" stroke="#E5E5E5" stroke-width="0.5"/><text x="34" y="160.0" fill="#7A7A7A" font-size="8" text-anchor="end">0</text><line x1="38" y1="131.75" x2="326" y2="131.75" stroke="#E5E5E5" stroke-width="0.5"/><text x="34" y="134.75" fill="#7A7A7A" font-size="8" text-anchor="end">12</text><line x1="38" y1="106.5" x2="326" y2="106.5" stroke="#E5E5E5" stroke-width="0.5"/><text x="34" y="109.5" fill="#7A7A7A" font-size="8" text-anchor="end">25</text><line x1="38" y1="81.25" x2="326" y2="81.25" stroke="#E5E5E5" stroke-width="0.5"/><text x="34" y="84.25" fill="#7A7A7A" font-size="8" text-anchor="end">38</text><line x1="38" y1="56.0" x2="326" y2="56.0" stroke="#E5E5E5" stroke-width="0.5"/><text x="34" y="59.0" fill="#7A7A7A" font-size="8" text-anchor="end">50</text><rect x="45.8" y="102.5" width="25.5" height="54.5" rx="2" fill="#3B6EA8"><title>Sun: 27 contribution(s)</title></rect><text x="58.6" y="169" fill="#7A7A7A" font-size="9" text-anchor="middle">Sun</text><text x="58.6" y="99.5" fill="#333333" font-size="9" text-anchor="middle">27</text><rect x="87.0" y="104.5" width="25.5" height="52.5" rx="2" fill="#3B6EA8"><title>Mon: 26 contribution(s)</title></rect><text x="99.7" y="169" fill="#7A7A7A" font-size="9" text-anchor="middle">Mon</text><text x="99.7" y="101.5" fill="#333333" font-size="9" text-anchor="middle">26</text><rect x="128.1" y="150.9" width="25.5" height="6.1" rx="2" fill="#3B6EA8"><title>Tue: 3 contribution(s)</title></rect><text x="140.9" y="169" fill="#7A7A7A" font-size="9" text-anchor="middle">Tue</text><text x="140.9" y="147.9" fill="#333333" font-size="9" text-anchor="middle">3</text><rect x="169.2" y="157.0" width="25.5" height="0.0" rx="2" fill="#3B6EA8"><title>Wed: 0 contribution(s)</title></rect><text x="182.0" y="169" fill="#7A7A7A" font-size="9" text-anchor="middle">Wed</text><rect x="210.4" y="157.0" width="25.5" height="0.0" rx="2" fill="#3B6EA8"><title>Thu: 0 contribution(s)</title></rect><text x="223.1" y="169" fill="#7A7A7A" font-size="9" text-anchor="middle">Thu</text><rect x="251.5" y="155.0" width="25.5" height="2.0" rx="2" fill="#3B6EA8"><title>Fri: 1 contribution(s)</title></rect><text x="264.3" y="169" fill="#7A7A7A" font-size="9" text-anchor="middle">Fri</text><text x="264.3" y="152.0" fill="#333333" font-size="9" text-anchor="middle">1</text><rect x="292.7" y="56.0" width="25.5" height="101.0" rx="2" fill="#C04040"><title>Sat: 50 contribution(s)</title></rect><text x="305.4" y="169" fill="#7A7A7A" font-size="9" text-anchor="middle">Sat</text><text x="305.4" y="53.0" fill="#333333" font-size="9" text-anchor="middle">50</text><text x="170.0" y="187" fill="#7A7A7A" font-size="9" text-anchor="middle">red bar = busiest weekday · 2026-07-20</text></svg>