<svg xmlns="http://www.w3.org/2000/svg" xmlns:xlink="http://www.w3.org/1999/xlink" width="340" height="195" viewBox="0 0 340 195" font-family="-apple-system,BlinkMacSystemFont,Segoe UI,Helvetica,Arial,sans-serif"><rect x="0.5" y="0.5" width="339" height="194" rx="8" fill="#FFFFFF" stroke="#E5E5E5" stroke-width="1"/><text x="170.0" y="26" fill="#3B6EA8" font-size="13" font-weight="700" text-anchor="middle">Weekly trend (last 26 weeks)</text><line x1="16" y1="38" x2="324" y2="38" stroke="#CCCCCC" stroke-width="0.6"/><line x1="36" y1="157.0" x2="326" y2="157.0" stroke="#E5E5E5" stroke-width="0.5"/><text x="32" y="160.0" fill="#7A7A7A" font-size="8" text-anchor="end">0</text><line x1="36" y1="131.75" x2="326" y2="131.75" stroke="#E5E5E5" stroke-width="0.5"/><text x="32" y="134.75" fill="#7A7A7A" font-size="8" text-anchor="end">12</text><line x1="36" y1="106.5" x2="326" y2="106.5" stroke="#E5E5E5" stroke-width="0.5"/><text x="32" y="109.5" fill="#7A7A7A" font-size="8" text-anchor="end">25</text><line x1="36" y1="81.25" x2="326" y2="81.25" stroke="#E5E5E5" stroke-width="0.5"/><text x="32" y="84.25" fill="#7A7A7A" font-size="8" text-anchor="end">38</text><line x1="36" y1="56.0" x2="326" y2="56.0" stroke="#E5E5E5" stroke-width="0.5"/><text x="32" y="59.0" fill="#7A7A7A" font-size="8" text-anchor="end">50</text><text x="36.0" y="169" fill="#7A7A7A" font-size="8" text-anchor="middle">Dec 15</text><text x="94.0" y="169" fill="#7A7A7A" font-size="8" text-anchor="middle">Jan 19</text><text x="152.0" y="169" fill="#7A7A7A" font-size="8" text-anchor="middle">Feb 23</text><text x="210.0" y="169" fill="#7A7A7A" font-size="8" text-anchor="middle">Mar 30</text><text x="268.0" y="169" fill="#7A7A7A" font-size="8" text-anchor="middle">May 04</text><text x="326.0" y="169" fill="#7A7A7A" font-size="8" text-anchor="middle">Jun 08</text><path d="M 36 157.0 L 36.0 157.0 L 47.6 157.0 L 59.2 157.0 L 70.8 157.0 L 82.4 157.0 L 94.0 157.0 L 105.6 157.0 L 117.2 157.0 L 128.8 157.0 L 140.4 157.0 L 152.0 157.0 L 163.6 157.0 L 175.2 157.0 L 186.8 157.0 L 198.4 157.0 L 210.0 157.0 L 221.6 157.0 L 233.2 157.0 L 244.8 157.0 L 256.4 102.5 L 268.0 98.4 L 279.6 157.0 L 291.2 56.0 L 302.8 157.0 L 314.4 157.0 L 326.0 157.0 L 326.0 157.0 Z" fill="#3B6EA8" fill-opacity="0.18" stroke="none"/><path d="M 36.0 157.0 L 47.6 157.0 L 59.2 157.0 L 70.8 157.0 L 82.4 157.0 L 94.0 157.0 L 105.6 157.0 L 117.2 157.0 L 128.8 157.0 L 140.4 157.0 L 152.0 157.0 L 163.6 157.0 L 175.2 157.0 L 186.8 157.0 L 198.4 157.0 L 210.0 157.0 L 221.6 157.0 L 233.2 157.0 L 244.8 157.0 L 256.4 102.5 L 268.0 98.4 L 279.6 157.0 L 291.2 56.0 L 302.8 157.0 L 314.4 157.0 L 326.0 157.0" fill="none" stroke="#3B6EA8" stroke-width="2" stroke-linejoin="round" stroke-linecap="round"/><circle cx="36.0" cy="157.0" r="1.6" fill="#3B6EA8" stroke="#FFFFFF" stroke-width="0.8"><title>2025-12-15: 0</title></circle><circle cx="47.6" cy="157.0" r="1.6" fill="#3B6EA8" stroke="#FFFFFF" stroke-width="0.8"><title>2025-12-22: 0</title></circle><circle cx="59.2" cy="157.0" r="1.6" fill="#3B6EA8" stroke="#FFFFFF" stroke-width="0.8"><title>2025-12-29: 0</title></circle><circle cx="70.8" cy="157.0" r="1.6" fill="#3B6EA8" stroke="#FFFFFF" stroke-width="0.8"><title>2026-01-05: 0</title></circle><circle cx="82.4" cy="157.0" r="1.6" fill="#3B6EA8" stroke="#FFFFFF" stroke-width="0.8"><title>2026-01-12: 0</title></circle><circle cx="94.0" cy="157.0" r="1.6" fill="#3B6EA8" stroke="#FFFFFF" stroke-width="0.8"><title>2026-01-19: 0</title></circle><circle cx="105.6" cy="157.0" r="1.6" fill="#3B6EA8" stroke="#FFFFFF" stroke-width="0.8"><title>2026-01-26: 0</title></circle><circle cx="117.2" cy="157.0" r="1.6" fill="#3B6EA8" stroke="#FFFFFF" stroke-width="0.8"><title>2026-02-02: 0</title></circle><circle cx="128.8" cy="157.0" r="1.6" fill="#3B6EA8" stroke="#FFFFFF" stroke-width="0.8"><title>2026-02-09: 0</title></circle><circle cx="140.4" cy="157.0" r="1.6" fill="#3B6EA8" stroke="#FFFFFF" stroke-width="0.8"><title>2026-02-16: 0</title></circle><circle cx="152.0" cy="157.0" r="1.6" fill="#3B6EA8" stroke="#FFFFFF" stroke-width="0.8"><title>2026-02-23: 0</title></circle><circle cx="163.6" cy="157.0" r="1.6" fill="#3B6EA8" stroke="#FFFFFF" stroke-width="0.8"><title>2026-03-02: 0</title></circle><circle cx="175.2" cy="157.0" r="1.6" fill="#3B6EA8" stroke="#FFFFFF" stroke-width="0.8"><title>2026-03-09: 0</title></circle><circle cx="186.8" cy="157.0" r="1.6" fill="#3B6EA8" stroke="#FFFFFF" stroke-width="0.8"><title>2026-03-16: 0</title></circle><circle cx="198.4" cy="157.0" r="1.6" fill="#3B6EA8" stroke="#FFFFFF" stroke-width="0.8"><title>2026-03-23: 0</title></circle><circle cx="210.0" cy="157.0" r="1.6" fill="#3B6EA8" stroke="#FFFFFF" stroke-width="0.8"><title>2026-03-30: 0</title></circle><circle cx="221.6" cy="157.0" r="1.6" fill="#3B6EA8" stroke="#FFFFFF" stroke-width="0.8"><title>2026-04-06: 0</title></circle><circle cx="233.2" cy="157.0" r="1.6" fill="#3B6EA8" stroke="#FFFFFF" stroke-width="0.8"><title>2026-04-13: 0</title></circle><circle cx="244.8" cy="157.0" r="1.6" fill="#3B6EA8" stroke="#FFFFFF" stroke-width="0.8"><title>2026-04-20: 0</title></circle><circle cx="256.4" cy="102.5" r="1.6" fill="#3B6EA8" stroke="#FFFFFF" stroke-width="0.8"><title>2026-04-27: 27</title></circle><circle cx="268.0" cy="98.4" r="1.6" fill="#3B6EA8" stroke="#FFFFFF" stroke-width="0.8"><title>2026-05-04: 29</title></circle><circle cx="279.6" cy="157.0" r="1.6" fill="#3B6EA8" stroke="#FFFFFF" stroke-width="0.8"><title>2026-05-11: 0</title></circle><circle cx="291.2" cy="56.0" r="3" fill="#C04040" stroke="#FFFFFF" stroke-width="0.8"><title>2026-05-18: 50</title></circle><circle cx="302.8" cy="157.0" r="1.6" fill="#3B6EA8" stroke="#FFFFFF" stroke-width="0.8"><title>2026-05-25: 0</title></circle><circle cx="314.4" cy="157.0" r="1.6" fill="#3B6EA8" stroke="#FFFFFF" stroke-width="0.8"><title>2026-06-01: 0</title></circle><circle cx="326.0" cy="157.0" r="1.6" fill="#3B6EA8" stroke="#FFFFFF" stroke-width="0.8"><title>2026-06-08: 0</title></circle><text x="170.0" y="187" fill="#7A7A7A" font-size="9" text-anchor="middle">red dot = peak week · 2026-06-14</text></svg>